<?xml version="1.0" encoding="utf-8"?>
<svg version="1.1" xmlns="http://www.w3.org/2000/svg" xmlns:xlink="http://www.w3.org/1999/xlink" x="0px" y="0px" viewBox="0 0 1024 1024" enable-background="new 0 0 1024 1024" xml:space="preserve">
<g transform="translate(0 128)">

 
 <g id="logo-group" transform="translate(-6.813 -5.6843e-14) scale(1)">
  <path id="path6742" style="font-variant-ligatures:none" d="m380.22 367.18c3.5568 1.2168 7.3008 1.7784 11.232 1.7784 6.084 0 10.858-1.2168 14.227-3.6504 3.3696-2.4336 5.0544-5.616 5.0544-9.7344 0-2.9952-0.8424-5.4288-2.4336-7.2072-1.6848-1.6848-3.6504-2.9952-5.9904-3.744s-5.4288-1.4976-9.1728-2.2464c-3.4632-0.6552-6.1776-1.3104-8.0496-1.872s-3.4632-1.4976-4.7736-2.7144-1.9656-2.9016-1.9656-5.148c0-2.7144 1.1232-4.9608 3.4632-6.6456 2.2464-1.6848 5.7096-2.5272 10.296-2.5272 2.6208 0 5.2416 0.3744 7.8624 1.1232 2.5272 0.7488 4.7736 1.872 6.8328 3.276l2.1528-3.744c-1.9656-1.404-4.4928-2.5272-7.488-3.4632-3.0888-0.8424-6.1776-1.3104-9.2664-1.3104-5.9904 0-10.577 1.3104-13.759 3.8376-3.1824 2.5272-4.7736 5.7096-4.7736 9.5472 0 3.1824 0.8424 5.7096 2.5272 7.488 1.6848 1.872 3.6504 3.1824 6.084 3.9312 2.34 0.8424 5.4288 1.5912 9.36 2.2464 3.276 0.6552 5.8968 1.2168 7.7688 1.7784s3.3696 1.4976 4.68 2.6208c1.3104 1.2168 1.9656 2.808 1.9656 4.8672 0 2.9016-1.2168 5.148-3.5568 6.7392-2.34 1.6848-5.9904 2.4336-10.858 2.4336-3.4632 0-6.7392-0.5616-9.9216-1.6848s-5.7096-2.5272-7.6752-4.212l-2.1528 3.744c1.9656 1.872 4.7736 3.3696 8.3304 4.4928z" stroke="#96ffad" stroke-miterlimit="2" stroke-width="1.43" fill="#96ffad"/>
  <path id="path6744" style="font-variant-ligatures:none" d="m452.71 363.06c-2.7144 1.1232-5.7096 1.6848-8.7984 1.6848-5.0544 0-9.2664-1.3104-12.823-3.9312-3.5568-2.6208-5.9904-6.1776-7.1136-10.67l41.278-8.0496c-0.2808-4.3056-1.3104-8.1432-3.3696-11.606-2.0592-3.4632-4.7736-6.1776-8.1432-8.1432s-7.2072-2.9952-11.419-2.9952c-4.5864 0-8.7048 1.1232-12.262 3.1824-3.6504 2.1528-6.4584 5.0544-8.5176 8.7984s-2.9952 8.0496-2.9952 12.823c0 4.8672 1.0296 9.0792 3.1824 12.823 2.1528 3.744 5.148 6.7392 8.9856 8.7984 3.8376 2.1528 8.1432 3.1824 13.104 3.1824 3.744 0 7.2072-0.6552 10.483-1.9656 3.0888-1.3104 5.8032-3.276 7.956-5.9904l-2.7144-3.0888c-1.872 2.34-4.1184 4.0248-6.8328 5.148zm-20.311-36.972c2.9016-1.6848 6.1776-2.6208 9.9216-2.6208 3.1824 0 6.1776 0.7488 8.7984 2.1528s4.68 3.3696 6.3648 5.7096c1.5912 2.4336 2.6208 5.148 3.0888 8.0496l-37.253 7.3008c-0.1872-1.2168-0.1872-2.1528-0.1872-2.9016 0-3.8376 0.7488-7.3944 2.4336-10.483 1.5912-3.0888 3.8376-5.5224 6.8328-7.2072z" stroke="#8df7b1" stroke-miterlimit="2" stroke-width="1.43" fill="#8df7b1"/>
  <path id="path6746" style="font-variant-ligatures:none" d="m486.47 365.78c3.744 2.1528 7.956 3.1824 12.73 3.1824 3.9312 0 7.488-0.7488 10.67-2.2464 3.1824-1.4976 5.8032-3.744 7.8624-6.7392l-3.4632-2.5272c-1.7784 2.4336-3.9312 4.3056-6.552 5.5224s-5.4288 1.7784-8.5176 1.7784c-3.8376 0-7.3008-0.8424-10.296-2.5272s-5.4288-4.1184-7.1136-7.3008c-1.6848-3.0888-2.5272-6.6456-2.5272-10.764 0-4.0248 0.8424-7.5816 2.5272-10.764 1.6848-3.0888 4.1184-5.5224 7.1136-7.2072s6.4584-2.6208 10.296-2.6208c3.0888 0 5.8968 0.6552 8.5176 1.872s4.7736 2.9952 6.552 5.4288l3.4632-2.5272c-2.0592-2.9016-4.68-5.148-7.8624-6.6456s-6.7392-2.34-10.67-2.34c-4.7736 0-8.9856 1.1232-12.73 3.1824-3.744 2.0592-6.7392 5.0544-8.7984 8.7984-2.1528 3.744-3.1824 8.0496-3.1824 12.823 0 4.7736 1.0296 9.0792 3.1824 12.823 2.0592 3.744 5.0544 6.7392 8.7984 8.7984z" stroke="#84f0b5" stroke-miterlimit="2" stroke-width="1.43" fill="#84f0b5"/>
  <path id="path6748" style="font-variant-ligatures:none" d="m531.74 319.72v48.859h4.68v-48.859zm-0.3744-12.917c0.7488 0.7488 1.5912 1.0296 2.7144 1.0296 1.0296 0 1.9656-0.3744 2.7144-1.1232s1.1232-1.5912 1.1232-2.7144c0-1.0296-0.3744-1.872-1.1232-2.6208s-1.6848-1.1232-2.7144-1.1232c-1.1232 0-1.9656 0.3744-2.7144 1.1232s-1.1232 1.6848-1.1232 2.7144c0 1.1232 0.3744 1.9656 1.1232 2.7144z" stroke="#7ae8b9" stroke-miterlimit="2" stroke-width="1.43" fill="#7ae8b9"/>
  <path id="path6750" style="font-variant-ligatures:none" d="m631.3 324.69c-3.4632-3.5568-8.2368-5.3352-14.227-5.3352-4.68 0-8.7048 1.1232-12.168 3.1824-3.4632 2.1528-5.9904 5.0544-7.5816 8.6112-1.3104-3.8376-3.5568-6.7392-6.6456-8.7984-3.0888-1.9656-6.8328-2.9952-11.232-2.9952-4.4928 0-8.3304 1.0296-11.513 2.9016-3.1824 1.872-5.616 4.5864-7.2072 7.956v-10.483h-4.4928v48.859h4.68v-26.021c0-5.8032 1.5912-10.39 4.7736-13.853 3.1824-3.3696 7.5816-5.148 13.104-5.148 4.7736 0 8.5176 1.4976 11.232 4.3056 2.6208 2.9016 4.0248 7.1136 4.0248 12.542v28.174h4.68v-26.021c0-5.8032 1.5912-10.39 4.7736-13.853 3.1824-3.3696 7.5816-5.148 13.104-5.148 4.7736 0 8.5176 1.4976 11.232 4.3056 2.6208 2.9016 4.0248 7.1136 4.0248 12.542v28.174h4.68v-28.548c0-6.6456-1.7784-11.794-5.2416-15.35z" stroke="#71e0bd" stroke-miterlimit="2" stroke-width="1.43" fill="#71e0bd"/>
  <path id="path6752" style="font-variant-ligatures:none" d="m652.5 367.84c0.7488 0.7488 1.6848 1.1232 2.808 1.1232 1.0296 0 1.9656-0.3744 2.7144-1.1232s1.2168-1.7784 1.2168-2.9016-0.468-2.0592-1.2168-2.808-1.6848-1.1232-2.7144-1.1232c-1.1232 0-2.0592 0.3744-2.808 1.1232s-1.1232 1.6848-1.1232 2.808 0.3744 2.1528 1.1232 2.9016z" stroke="#68d9c1" stroke-miterlimit="2" stroke-width="1.43" fill="#68d9c1"/>
  <path id="path6754" style="font-variant-ligatures:none" d="m421.21 400.35h-4.4928v11.045c-1.9656-3.5568-4.7736-6.3648-8.3304-8.424-3.6504-1.9656-7.6752-2.9952-12.168-2.9952-4.5864 0-8.7048 1.0296-12.449 2.9952-3.744 2.0592-6.6456 4.8672-8.7048 8.424-2.1528 3.6504-3.1824 7.7688-3.1824 12.262 0 4.5864 1.0296 8.7048 3.1824 12.262 2.0592 3.6504 4.9608 6.4584 8.7048 8.5176s7.8624 2.9952 12.449 2.9952c4.3992 0 8.424-0.936 11.981-2.9016 3.5568-1.872 6.2712-4.68 8.3304-8.2368v8.2368c0 6.552-1.5912 11.326-4.68 14.414-3.1824 3.0888-7.956 4.5864-14.414 4.5864-3.9312 0-7.5816-0.5616-10.951-1.872-3.4632-1.2168-6.3648-2.9952-8.7984-5.2416l-2.5272 3.5568c2.4336 2.4336 5.616 4.3992 9.6408 5.7096 3.9312 1.404 8.2368 2.0592 12.73 2.0592 7.8624 0 13.853-1.872 17.784-5.8032 3.9312-3.8376 5.8968-9.828 5.8968-17.971zm-14.321 40.435c-3.0888 1.6848-6.552 2.4336-10.296 2.4336-3.8376 0-7.3008-0.7488-10.296-2.4336s-5.4288-3.9312-7.1136-6.9264-2.5272-6.3648-2.5272-10.202c0-3.744 0.8424-7.1136 2.5272-10.109 1.6848-2.9016 4.1184-5.148 7.1136-6.8328s6.4584-2.5272 10.296-2.5272c3.744 0 7.2072 0.8424 10.296 2.5272 2.9952 1.6848 5.4288 3.9312 7.1136 6.8328 1.6848 2.9952 2.6208 6.3648 2.6208 10.109 0 3.8376-0.936 7.2072-2.6208 10.202-1.6848 2.9952-4.1184 5.2416-7.1136 6.9264z" stroke="#5fd1c5" stroke-miterlimit="2" stroke-width="1.43" fill="#5fd1c5"/>
  <path id="path6756" style="font-variant-ligatures:none" d="m447.57 446.4c3.744 2.1528 7.8624 3.1824 12.542 3.1824 4.5864 0 8.7048-1.0296 12.449-3.1824 3.744-2.0592 6.6456-5.0544 8.7984-8.7984 2.0592-3.744 3.1824-8.0496 3.1824-12.823 0-4.68-1.1232-8.9856-3.1824-12.73-2.1528-3.744-5.0544-6.7392-8.7984-8.892-3.744-2.0592-7.8624-3.1824-12.449-3.1824-4.68 0-8.7984 1.1232-12.542 3.1824-3.744 2.1528-6.6456 5.148-8.7048 8.892-2.1528 3.744-3.1824 8.0496-3.1824 12.73 0 4.7736 1.0296 9.0792 3.1824 12.823 2.0592 3.744 4.9608 6.7392 8.7048 8.7984zm22.558-3.6504c-2.9952 1.7784-6.2712 2.6208-10.015 2.6208-3.744 0-7.1136-0.8424-10.109-2.6208-2.9952-1.6848-5.3352-4.1184-7.02-7.3008-1.6848-3.0888-2.5272-6.6456-2.5272-10.67 0-3.9312 0.8424-7.488 2.5272-10.67 1.6848-3.0888 4.0248-5.5224 7.02-7.3008 2.9952-1.6848 6.3648-2.6208 10.109-2.6208 3.744 0 7.02 0.936 10.015 2.6208 2.9952 1.7784 5.3352 4.212 7.02 7.3008 1.6848 3.1824 2.6208 6.7392 2.6208 10.67 0 4.0248-0.936 7.5816-2.6208 10.67-1.6848 3.1824-4.0248 5.616-7.02 7.3008z" stroke="#56c9c9" stroke-miterlimit="2" stroke-width="1.43" fill="#56c9c9"/>
  <path id="path6758" style="font-variant-ligatures:none" d="m537.35 405.31c-3.5568-3.5568-8.424-5.3352-14.508-5.3352-4.5864 0-8.5176 1.0296-11.887 2.9016-3.3696 1.9656-5.8032 4.68-7.488 8.0496v-10.577h-4.4928v48.859h4.68v-26.021c0-5.8032 1.5912-10.39 4.9608-13.853 3.276-3.3696 7.7688-5.148 13.572-5.148 4.9608 0 8.7984 1.4976 11.606 4.3056 2.808 2.9016 4.212 7.1136 4.212 12.542v28.174h4.68v-28.548c0-6.6456-1.7784-11.794-5.3352-15.35z" stroke="#4cc2cd" stroke-miterlimit="2" stroke-width="1.43" fill="#4cc2cd"/>
  <path id="path6760" style="font-variant-ligatures:none" d="m604.82 400.35h-4.68v26.021c0 5.8032-1.6848 10.483-4.8672 13.853-3.1824 3.4632-7.5816 5.148-13.01 5.148-5.148 0-9.0792-1.404-11.887-4.3056-2.808-2.808-4.212-7.02-4.212-12.542v-28.174h-4.68v28.548c0 6.7392 1.7784 11.794 5.4288 15.35 3.5568 3.5568 8.6112 5.3352 14.976 5.3352 4.3056 0 8.0496-0.936 11.232-2.808s5.5224-4.5864 7.2072-8.0496v10.483h4.4928z" stroke="#43bad1" stroke-miterlimit="2" stroke-width="1.43" fill="#43bad1"/>
  <path id="path6762" style="font-variant-ligatures:none" d="m624.75 379.76v69.451h4.68v-69.451z" stroke="#3ab2d5" stroke-miterlimit="2" stroke-width="1.43" fill="#3ab2d5"/>
  <path id="path6764" style="font-variant-ligatures:none" d="m649.25 379.76v69.451h4.68v-69.451z" stroke="#31abd9" stroke-miterlimit="2" stroke-width="1.43" fill="#31abd9"/>
  <path id="path6766" style="font-variant-ligatures:none" d="m716.52 400.35h-4.68v26.021c0 5.8032-1.6848 10.483-4.8672 13.853-3.1824 3.4632-7.5816 5.148-13.01 5.148-5.148 0-9.0792-1.404-11.887-4.3056-2.808-2.808-4.212-7.02-4.212-12.542v-28.174h-4.68v28.548c0 6.7392 1.7784 11.794 5.4288 15.35 3.5568 3.5568 8.6112 5.3352 14.976 5.3352 4.3056 0 8.0496-0.936 11.232-2.808s5.5224-4.5864 7.2072-8.0496v10.483h4.4928z" stroke="#28a3dd" stroke-miterlimit="2" stroke-width="1.43" fill="#28a3dd"/>
  <path id="path6768" style="font-variant-ligatures:none" d="m733.08 448.46c0.7488 0.7488 1.6848 1.1232 2.808 1.1232 1.0296 0 1.9656-0.3744 2.7144-1.1232s1.2168-1.7784 1.2168-2.9016-0.468-2.0592-1.2168-2.808-1.6848-1.1232-2.7144-1.1232c-1.1232 0-2.0592 0.3744-2.808 1.1232s-1.1232 1.6848-1.1232 2.808 0.3744 2.1528 1.1232 2.9016z" stroke="#1e9be1" stroke-miterlimit="2" stroke-width="1.43" fill="#1e9be1"/>
  <path id="path6770" style="font-variant-ligatures:none" d="m755.09 400.35v48.859h4.68v-48.859zm-0.3744-12.917c0.7488 0.7488 1.5912 1.0296 2.7144 1.0296 1.0296 0 1.9656-0.3744 2.7144-1.1232s1.1232-1.5912 1.1232-2.7144c0-1.0296-0.3744-1.872-1.1232-2.6208s-1.6848-1.1232-2.7144-1.1232c-1.1232 0-1.9656 0.3744-2.7144 1.1232s-1.1232 1.6848-1.1232 2.7144c0 1.1232 0.3744 1.9656 1.1232 2.7144z" stroke="#1594e5" stroke-miterlimit="2" stroke-width="1.43" fill="#1594e5"/>
  <path id="path6772" style="font-variant-ligatures:none" d="m786.14 446.4c3.744 2.1528 7.8624 3.1824 12.542 3.1824 4.5864 0 8.7048-1.0296 12.449-3.1824 3.744-2.0592 6.6456-5.0544 8.7984-8.7984 2.0592-3.744 3.1824-8.0496 3.1824-12.823 0-4.68-1.1232-8.9856-3.1824-12.73-2.1528-3.744-5.0544-6.7392-8.7984-8.892-3.744-2.0592-7.8624-3.1824-12.449-3.1824-4.68 0-8.7984 1.1232-12.542 3.1824-3.744 2.1528-6.6456 5.148-8.7048 8.892-2.1528 3.744-3.1824 8.0496-3.1824 12.73 0 4.7736 1.0296 9.0792 3.1824 12.823 2.0592 3.744 4.9608 6.7392 8.7048 8.7984zm22.558-3.6504c-2.9952 1.7784-6.2712 2.6208-10.015 2.6208-3.744 0-7.1136-0.8424-10.109-2.6208-2.9952-1.6848-5.3352-4.1184-7.02-7.3008-1.6848-3.0888-2.5272-6.6456-2.5272-10.67 0-3.9312 0.8424-7.488 2.5272-10.67 1.6848-3.0888 4.0248-5.5224 7.02-7.3008 2.9952-1.6848 6.3648-2.6208 10.109-2.6208 3.744 0 7.02 0.936 10.015 2.6208 2.9952 1.7784 5.3352 4.212 7.02 7.3008 1.6848 3.1824 2.6208 6.7392 2.6208 10.67 0 4.0248-0.936 7.5816-2.6208 10.67-1.6848 3.1824-4.0248 5.616-7.02 7.3008z" stroke="#0c8ce9" stroke-miterlimit="2" stroke-width="1.43" fill="#0c8ce9"/>
  <path id="icon" stroke-width=".75" fill="#00cb8d" d="m283.51 312.06c-0.44577 0.002-0.95663 0.0284-1.1676 0.0605-0.20641 0.0317-0.50666 0.0888-0.6672 0.12718-0.16054 0.0384-0.47788 0.13386-0.70556 0.21267-0.22727 0.0784-0.56504 0.2185-0.7506 0.31108-0.18515 0.0926-0.44953 0.23519-0.58714 0.31692-0.13761 0.0817-0.42159 0.27648-0.63092 0.43243-0.20933 0.15596-0.54044 0.44286-0.73601 0.63718s-0.47621 0.50874-0.62341 0.69931c-0.14721 0.19015-0.35445 0.48664-0.46037 0.65886-0.10591 0.1718-0.27688 0.4908-0.3803 0.7089-0.103 0.21767-0.24561 0.57129-0.31734 0.78517-0.0717 0.21393-0.16597 0.55169-0.20975 0.7506-0.0438 0.19891-0.10008 0.58672-0.1251 0.86198-0.025 0.27522-0.30692 4.5065-0.62633 9.4035-0.31943 4.8964-0.59506 9.0248-0.61257 9.174-0.02 0.17139-0.098-2.1242-0.21267-6.255-0.12-4.449-0.19501-6.6255-0.2325-6.8385-0.0308-0.1725-0.096-0.4725-0.14551-0.6675-0.0503-0.195-0.153-0.51375-0.22799-0.70875-0.0757-0.19575-0.21375-0.507-0.30675-0.693-0.093-0.18525-0.30525-0.53925-0.47026-0.7875-0.16874-0.25125-0.48674-0.642-0.72224-0.88725-0.23176-0.24075-0.55275-0.5445-0.71325-0.67575-0.16051-0.13125-0.45601-0.3465-0.6585-0.47775-0.201-0.13125-0.576-0.33825-0.834-0.45975-0.25651-0.12225-0.65475-0.282-0.88426-0.35475-0.22949-0.0735-0.59474-0.17025-0.81299-0.216-0.26063-0.0538-0.64594-0.0901-1.1259-0.10509-0.64302-0.0208-0.82148-0.0104-1.5012 0.0855-0.42409 0.06-0.9495 0.15679-1.1676 0.21475-0.21768 0.058-0.52751 0.15429-0.68806 0.21393-0.16054 0.0596-0.47954 0.20141-0.70889 0.31441-0.22935 0.11342-0.59506 0.32526-0.81315 0.47121-0.21768 0.14553-0.56587 0.41325-0.77355 0.59506-0.20725 0.18181-0.525 0.50708-0.70599 0.72266-0.18097 0.21559-0.44785 0.57338-0.59339 0.79523-0.14553 0.22226-0.35696 0.59756-0.47038 0.83482-0.11342 0.23727-0.27105 0.63009-0.3507 0.8736-0.0796 0.24311-0.18848 0.64635-0.24144 0.89573l-0.096 0.4545-0.021 15.872-0.021 15.872-1.8922-4.3088c-1.0408-2.3698-1.9791-4.4598-2.085-4.6445-0.10633-0.18514-0.31275-0.50499-0.4587-0.7114-0.14595-0.20642-0.42408-0.54335-0.61758-0.74894-0.19348-0.20558-0.49623-0.49414-0.67262-0.64093-0.17625-0.147-0.5115-0.39225-0.744-0.54449-0.234-0.15301-0.61875-0.37051-0.85575-0.48376-0.23775-0.11325-0.633-0.27225-0.879-0.35325-0.246-0.0802-0.63075-0.183-0.85425-0.22799-0.22351-0.045-0.64718-0.10342-0.94155-0.1297-0.40032-0.0359-0.67846-0.0359-1.105-0.00041-0.31358 0.0263-0.71056 0.0759-0.88282 0.11092-0.17181 0.0346-0.50791 0.11885-0.74601 0.18723-0.23811 0.068-0.59465 0.19016-0.7923 0.27105-0.19766 0.0813-0.5371 0.24812-0.75518 0.37071-0.21767 0.12302-0.5275 0.3165-0.68805 0.42993-0.16054 0.11385-0.44202 0.33944-0.6255 0.50207-0.18348 0.16221-0.4612 0.4416-0.61758 0.62008-0.15595 0.17847-0.41533 0.51999-0.57629 0.75855-0.16055 0.23894-0.37739 0.60339-0.48122 0.81067-0.10425 0.20725-0.25311 0.54377-0.33109 0.7481-0.0776 0.20433-0.18056 0.52416-0.22852 0.7114-0.048 0.18723-0.11467 0.4904-0.14887 0.67388s-0.0726 0.63634-0.0855 1.0066c-0.015 0.4245-0.005 0.82522 0.0275 1.0842 0.0279 0.22601 0.11385 0.70222 0.19057 1.0583 0.0771 0.35612 0.55253 2.2798 1.0571 4.2747 0.50415 1.9949 1.0129 3.9928 1.1305 4.4398 0.11718 0.44744 0.35279 1.329 0.52334 1.9599l0.31066 1.1468 0.78645 5.8588c0.43243 3.2222 0.77858 5.8676 0.7698 5.8784-0.009 0.0109-0.55544 0.0696-1.2135 0.13094-0.65844 0.0613-1.1997 0.10884-1.2034 0.1055-0.005-0.004-0.98475-4.6042-2.178-10.223-1.194-5.619-2.2065-10.321-2.2508-10.448-0.0435-0.1275-0.1215-0.315-0.17325-0.417-0.0517-0.10275-0.1755-0.30075-0.27525-0.44175-0.099-0.14025-0.30825-0.372-0.4635-0.5145-0.156-0.1425-0.4095-0.3345-0.56325-0.426-0.15387-0.0917-0.4195-0.22101-0.59047-0.28731-0.17055-0.0663-0.48539-0.15095-0.69973-0.18848-0.27564-0.0484-0.5054-0.0609-0.78563-0.043-0.21767 0.0142-0.56503 0.0701-0.77145 0.12427-0.20641 0.0542-0.48955 0.14553-0.62883 0.20308-0.1397 0.0575-0.36405 0.17514-0.49915 0.26146-0.13511 0.0863-0.36571 0.27188-0.51208 0.41241-0.147 0.141-0.34725 0.36825-0.4455 0.5055-0.0976 0.13761-0.23435 0.36279-0.30316 0.5004-0.0688 0.13761-0.1668 0.38155-0.21809 0.5421-0.0688 0.21558-0.0984 0.43368-0.11425 0.834-0.0154 0.40449-0.004 0.62675 0.0467 0.8757 0.0371 0.18348 0.89325 4.8643 1.9024 10.402 1.2022 6.6003 1.8194 10.078 1.791 10.095-0.0242 0.015-0.56003 0.17263-1.1914 0.35028-0.63134 0.17805-1.1526 0.31733-1.1584 0.3094-0.005-0.007-1.038-3.675-2.2942-8.1472-1.5338-5.4585-2.3265-8.214-2.4112-8.382-0.069-0.13725-0.1965-0.35325-0.2835-0.47925-0.0863-0.126-0.276-0.34425-0.4215-0.4845-0.1455-0.1395-0.34875-0.31125-0.45225-0.38025-0.103-0.0688-0.30399-0.1839-0.44619-0.25562-0.14262-0.0717-0.42409-0.17973-0.6255-0.24061-0.31818-0.0959-0.44202-0.11051-0.92993-0.11134-0.44327-0.00042-0.63092 0.0179-0.88237 0.0867-0.17556 0.048-0.54544 0.18931-0.82193 0.31441-0.27647 0.1251-0.62091 0.31192-0.76605 0.41492-0.1447 0.10342-0.38781 0.31984-0.53959 0.48121-0.15221 0.16138-0.35612 0.4266-0.45287 0.58923-0.0963 0.16305-0.22893 0.45036-0.29356 0.63926-0.0651 0.1889-0.14012 0.48372-0.1668 0.65594-0.0271 0.17514-0.0384 0.47789-0.025 0.68805 0.0129 0.20642 0.0613 0.51583 0.108 0.68805 0.0463 0.1718 1.4908 5.9139 3.2101 12.76 1.7197 6.8458 3.1325 12.484 3.1396 12.53 0.009 0.0554-0.0138 0.0867-0.0701 0.0963-0.0459 0.008-0.34611 0.0776-0.6672 0.15512-0.32109 0.0772-0.61466 0.15221-0.65219 0.1668-0.0526 0.0205-0.78645-0.9003-3.2468-4.0732-1.7481-2.2547-3.2935-4.2184-3.4344-4.3639-0.14095-0.14512-0.36862-0.34487-0.50623-0.44328-0.13761-0.0984-0.38156-0.24477-0.5421-0.32525-0.16055-0.0801-0.42075-0.18557-0.57838-0.23436-0.15763-0.0488-0.46412-0.10926-0.68096-0.13511-0.29357-0.0346-0.4904-0.0342-0.76815 0.002-0.20517 0.0263-0.52751 0.0963-0.71599 0.15595-0.18807 0.0592-0.45495 0.1643-0.59256 0.2331s-0.36279 0.20517-0.5004 0.30275c-0.13761 0.098-0.36404 0.29773-0.50291 0.44368-0.13886 0.14595-0.31441 0.35571-0.38989 0.46663-0.0755 0.11051-0.21017 0.35695-0.29941 0.54711-0.0892 0.19015-0.20266 0.51248-0.2527 0.71598-0.0676 0.27773-0.0901 0.49582-0.0892 0.87068 0.00083 0.29982 0.0279 0.61924 0.0676 0.79732 0.0363 0.16305 0.11134 0.41617 0.16638 0.56295 0.055 0.14637 0.75308 1.4762 1.5508 2.9557 0.7977 1.4791 1.8068 3.3368 2.2422 4.1283 0.43535 0.79102 1.0162 1.8327 1.291 2.3144 0.27522 0.48163 0.65094 1.1288 0.83565 1.4386 0.18474 0.30941 0.47955 0.7794 0.65553 1.0442 0.17556 0.26479 0.59589 0.85192 0.93367 1.3048 0.33735 0.45286 0.87323 1.148 1.1901 1.5446 0.3165 0.39698 0.80438 0.9879 1.0838 1.3136 0.27939 0.32568 0.75773 0.85905 1.0625 1.1852 0.30483 0.32568 0.741 0.771 0.9687 0.98873 0.22768 0.21767 0.58463 0.54877 0.79312 0.73558 0.2085 0.18682 0.61299 0.52626 0.89948 0.7548 0.28606 0.22811 0.69889 0.5396 0.9174 0.69181 0.21809 0.15221 0.57629 0.38947 0.79522 0.52709 0.21935 0.13802 0.62258 0.3728 0.8961 0.5225 0.27356 0.1497 0.74852 0.38197 1.0558 0.51666 0.30733 0.13469 0.83273 0.33944 1.1672 0.45495 0.33485 0.1155 0.86948 0.2748 1.1884 0.35445 0.31901 0.0797 0.76268 0.17722 0.98618 0.21684l0.40657 0.0722 0.04 0.15178c0.0217 0.0834 0.25729 1.0238 0.52292 2.0904 0.26604 1.0663 0.49206 1.9682 0.5029 2.0041 0.0129 0.043-0.0288 0.088-0.12301 0.13302-0.0784 0.0375-0.41158 0.1743-0.7406 0.30399-0.32901 0.12969-0.90277 0.38281-1.2756 0.56254-0.37279 0.17972-0.89865 0.45702-1.1684 0.61715-0.27022 0.15972-0.6501 0.40783-0.84443 0.55128-0.19432 0.14344-0.48038 0.37238-0.6355 0.50916-0.15471 0.13677-0.39324 0.38697-0.52917 0.55627-0.13636 0.16972-0.31317 0.42534-0.39282 0.56921-0.0792 0.14344-0.18431 0.38238-0.23268 0.53167-0.0484 0.14887-0.0992 0.40407-0.11301 0.56629-0.0142 0.16429-0.004 0.4195 0.0238 0.57546 0.0267 0.15429 1.5491 5.8947 3.3836 12.757 2.64 9.8768 3.3656 12.539 3.4828 12.779 0.098 0.20058 0.23519 0.38989 0.40866 0.56337 0.14387 0.14386 0.37447 0.3215 0.51208 0.3949 0.13803 0.0738 0.36112 0.16263 0.49581 0.19765 0.13469 0.035 0.40908 0.0638 0.60924 0.0638 0.28731 0 0.42826-0.0229 0.66886-0.10925 0.16764-0.0596 0.43285-0.1935 0.58964-0.29733 0.15637-0.10342 0.35987-0.28314 0.45161-0.39906 0.0917-0.11593 0.21518-0.30609 0.27397-0.42201 0.0588-0.11592 0.13219-0.30483 0.16305-0.4195 0.0304-0.11468 0.0559-0.3653 0.0563-0.5567l0.00042-0.34819-2.8564-10.741c-1.5712-5.9072-2.8519-10.744-2.846-10.75 0.006-0.005 0.26396-0.0317 0.57338-0.0584 0.30983-0.0267 0.9291-0.0947 1.3761-0.15137 0.44744-0.0563 1.1793-0.15846 1.6263-0.22685 0.44744-0.0684 1.1884-0.19099 1.6472-0.27147 0.4587-0.0809 1.3219-0.24144 1.9182-0.35695 0.59631-0.11551 1.6472-0.33068 2.3352-0.47872 0.68805-0.14803 1.7764-0.39239 2.4186-0.54335 0.64218-0.15054 2.0591-0.49706 3.1484-0.7698 1.0896-0.27271 2.5875-0.66511 3.3289-0.87195 0.74143-0.20641 1.3557-0.37572 1.3652-0.37572 0.009 0 0.0217 5.9156 0.0279 13.146l0.0108 13.146 0.10842 0.29607c0.0596 0.16305 0.17847 0.40199 0.26437 0.53126 0.0855 0.12927 0.25187 0.32151 0.36947 0.42701 0.11759 0.1055 0.32192 0.24686 0.45453 0.31358 0.1326 0.0671 0.34861 0.1497 0.47955 0.1839 0.13135 0.0342 0.39031 0.0621 0.57546 0.0621 0.18514 0 0.44744-0.0288 0.58213-0.0638s0.35904-0.12385 0.49874-0.19724c0.13927-0.0734 0.36862-0.24687 0.50916-0.38573 0.14386-0.14219 0.31024-0.36112 0.38072-0.50123 0.0692-0.13719 0.16054-0.35237 0.2035-0.4783l0.0776-0.22935 0.0108-19.322 0.0109-19.322 0.0726 0.03c0.04 0.0163 0.65218 0.15887 1.3603 0.31692 0.70807 0.15804 1.7214 0.37113 2.2518 0.47371 0.53042 0.10299 1.4053 0.26188 1.9441 0.35404 0.53918 0.0917 1.4211 0.23226 1.9599 0.31232 0.53918 0.0797 1.5054 0.21101 2.1476 0.2919 0.64218 0.0805 1.8152 0.21184 2.6062 0.29148 0.79147 0.0797 1.814 0.17348 2.2726 0.2085 0.4587 0.035 1.1438 0.0826 1.522 0.10551 0.37863 0.023 1.073 0.0609 1.5429 0.0838 0.47037 0.023 1.6876 0.0613 2.7055 0.0851 1.2727 0.0296 2.4386 0.0292 3.7322-0.00041 1.035-0.0238 2.238-0.0617 2.6738-0.0842 0.43576-0.0225 1.2147-0.07 1.7306-0.10508 0.51625-0.035 1.3699-0.10134 1.8974-0.14678 0.5275-0.0459 1.2406-0.11134 1.5846-0.14596 0.34402-0.0342 1.0383-0.11008 1.5429-0.16805 0.50457-0.0584 1.3865-0.17138 1.9599-0.25103 0.57337-0.0797 1.399-0.20141 1.8348-0.27063 0.43576-0.0688 1.2706-0.21017 1.8548-0.31359 0.58422-0.10341 1.5129-0.28148 2.0637-0.39573 0.55086-0.11384 1.1075-0.23477 1.2372-0.26855 0.12969-0.0334 0.27522-0.0609 0.32318-0.0609h0.088v19.096c0 13.63 0.0129 19.16 0.0455 19.318 0.0251 0.12177 0.11301 0.35946 0.19516 0.52876 0.0997 0.20474 0.23519 0.39282 0.40532 0.56295 0.14845 0.14845 0.36821 0.31275 0.52459 0.39198 0.14762 0.0751 0.37196 0.16388 0.4979 0.19724 0.12593 0.0337 0.37988 0.0613 0.56419 0.0617 0.18432 0 0.44703-0.0283 0.5838-0.0634 0.13678-0.035 0.34945-0.11259 0.47247-0.17222 0.12343-0.0601 0.35111-0.22851 0.50582-0.37446 0.18807-0.17722 0.33277-0.36279 0.43493-0.55711 0.0842-0.16013 0.18014-0.41825 0.21267-0.57296 0.0513-0.24102 0.0601-2.0704 0.0605-12.59l0.00075-12.308 0.34403 0.078c0.18931 0.0425 0.90697 0.19016 1.595 0.32735 0.68805 0.13719 1.7856 0.34278 2.4394 0.45661 0.65385 0.11384 1.7889 0.30149 2.5228 0.417 0.73392 0.11593 1.663 0.2573 2.0642 0.31526 0.40157 0.0575 1.3302 0.17931 2.0642 0.27105 0.73392 0.0917 1.8598 0.22226 2.502 0.29023 0.64218 0.0679 1.4962 0.15262 1.8974 0.18848 0.40157 0.0358 1.105 0.0926 1.5638 0.12594 0.4587 0.0337 1.3328 0.0826 1.9424 0.10884 0.60965 0.0262 1.6555 0.0412 2.3248 0.0329 1.0088-0.0121 1.2164-0.005 1.2164 0.0425 0 0.0313-0.72391 4.8914-1.6084 10.8-1.3862 9.2572-1.6054 10.787-1.5867 11.06 0.0125 0.17597 0.0663 0.43826 0.12218 0.5913 0.0546 0.15137 0.16054 0.36988 0.23476 0.48539 0.0743 0.11593 0.2502 0.31692 0.39074 0.44744 0.1522 0.14095 0.38322 0.29774 0.57004 0.38698l0.31358 0.1497h0.52125c0.44619 0 0.56044-0.0142 0.7923-0.0997 0.14929-0.0546 0.36487-0.15971 0.47955-0.23311 0.11467-0.0738 0.2869-0.21267 0.38239-0.30858 0.0955-0.0963 0.23226-0.26605 0.30399-0.3778 0.0717-0.11134 0.16555-0.30357 0.20892-0.42659 0.0476-0.13594 0.82605-5.1908 1.9832-12.879l1.9044-12.655-0.0217-0.43993c-0.0117-0.24186-0.0521-0.55753-0.0897-0.70182-0.0371-0.14386-0.11218-0.36237-0.16639-0.48497-0.0542-0.12259-0.17889-0.34152-0.27688-0.48622-0.0984-0.14511-0.32151-0.40491-0.49623-0.57671-0.17472-0.17222-0.46662-0.41908-0.64886-0.54877-0.18222-0.12969-0.53709-0.35028-0.789-0.48998-0.25228-0.13969-0.68388-0.34944-0.9591-0.46579-0.27563-0.11676-0.71682-0.28647-0.98077-0.37738-0.26354-0.0913-0.72683-0.23978-1.0296-0.33026-0.30233-0.0905-0.58505-0.16472-0.62801-0.16472h-0.0784l0.31442-2.2076 0.31483-2.208 0.43869-0.15388c0.24144-0.0846 0.68679-0.26229 0.99037-0.3949s0.79148-0.37655 1.0842-0.5421c0.29273-0.16555 0.72975-0.43243 0.97035-0.59297 0.24103-0.16055 0.59756-0.41617 0.7923-0.56712 0.19516-0.15137 0.57046-0.46538 0.83445-0.69764 0.26354-0.23227 0.68721-0.63801 0.94035-0.90158 0.25353-0.26396 0.63008-0.67429 0.83693-0.91282 0.20682-0.23811 0.52583-0.62217 0.7089-0.85275 0.18306-0.2306 0.50915-0.66219 0.72474-0.9591 0.21517-0.29691 0.60048-0.8586 0.85613-1.2485 0.25562-0.38989 0.67096-1.0563 0.92325-1.4804 0.25186-0.42451 0.60923-1.0438 0.79357-1.3761 0.18473-0.33277 0.50499-0.92362 0.71182-1.3136 0.20725-0.38989 0.50249-0.99037 0.65678-1.3344 0.15387-0.34402 0.40115-0.91657 0.5496-1.2718 0.14887-0.3557 0.51416-1.2564 0.81233-2.0016 0.29857-0.7456 0.84232-2.1342 1.2088-3.0858 0.36654-0.95205 0.98452-2.5712 1.3736-3.5991 0.38865-1.0279 0.7456-2.0316 0.79313-2.231 0.0642-0.2698 0.0859-0.49581 0.0846-0.88365-0.001-0.41783-0.0229-0.60298-0.10759-0.93285-0.0583-0.22643-0.18014-0.56587-0.27146-0.7539-0.0909-0.18807-0.25145-0.45619-0.35612-0.59548-0.10466-0.13927-0.30316-0.35778-0.44118-0.48538-0.13761-0.12802-0.37906-0.30858-0.53627-0.40199-0.1572-0.0934-0.45202-0.22768-0.65594-0.29857-0.29899-0.10425-0.45828-0.13261-0.83107-0.14929-0.37863-0.0167-0.52459-0.005-0.81316 0.0676-0.19348 0.0484-0.50665 0.1643-0.69597 0.25728-0.18931 0.093-0.48205 0.28023-0.65052 0.41576-0.16846 0.13552-0.41408 0.38322-0.54543 0.55044-0.14845 0.18931-1.2051 2.0049-2.7981 4.8076-1.4078 2.477-2.5658 4.5199-2.5733 4.5394-0.008 0.0196-0.1914 0.007-0.40866-0.0283-0.21684-0.0355-0.52125-0.0763-0.67596-0.0913-0.17222-0.0166-0.28147-0.0459-0.28147-0.0759 0-0.0271 0.80692-5.7817 1.7936-12.788 0.98617-7.0069 1.816-12.843 1.844-12.969 0.028-0.12636 0.0487-0.4733 0.0463-0.77145-0.003-0.40658-0.0259-0.6255-0.0917-0.8757-0.0479-0.18348-0.18431-0.52709-0.30273-0.76395-0.16472-0.32943-0.28941-0.50874-0.53001-0.76478-0.17306-0.1839-0.42534-0.40949-0.56045-0.50123-0.13469-0.0917-0.35153-0.21392-0.48206-0.27147-0.1301-0.058-0.43325-0.15054-0.67428-0.20642-0.30566-0.0705-0.56379-0.10133-0.85485-0.10216-0.28607-0.00042-0.51875 0.0258-0.74184 0.0834-0.17848 0.0467-0.47289 0.1618-0.65428 0.25603-0.1814 0.0942-0.45745 0.27856-0.61299 0.4095-0.15554 0.13052-0.36779 0.34319-0.47121 0.47204-0.10383 0.12927-0.2527 0.34111-0.3311 0.47079-0.0784 0.1301-0.20307 0.39907-0.2773 0.59797-0.11885 0.31859-0.30066 1.3619-1.5116 8.6738-0.75682 4.5716-1.3849 8.3205-1.3957 8.331-0.0109 0.0109-0.50499-0.0692-1.0984-0.17763-0.5934-0.10842-1.0842-0.20058-1.0909-0.20517-0.007-0.005 0.36529-4.6595 0.82687-10.345 0.46204-5.6849 0.84945-10.496 0.86153-10.69 0.0142-0.23185-0.002-0.48705-0.045-0.73767-0.0367-0.211-0.12302-0.53709-0.1914-0.72516-0.0684-0.18765-0.21101-0.47955-0.31651-0.64885-0.10549-0.16972-0.30774-0.42576-0.44952-0.56963-0.14178-0.14386-0.34194-0.31942-0.44494-0.38989-0.103-0.0705-0.27063-0.17055-0.3728-0.22268-0.10216-0.0517-0.28981-0.13135-0.417-0.17639-0.1939-0.0688-0.32985-0.0813-0.8361-0.0767-0.36404 0.004-0.71056 0.0304-0.87112 0.0675-0.14679 0.0338-0.41868 0.13344-0.60465 0.22143-0.18599 0.0876-0.45453 0.24769-0.59673 0.35528-0.1422 0.108-0.34694 0.29357-0.45495 0.41325-0.108 0.11927-0.2798 0.34528-0.38156 0.50207-0.10216 0.15679-0.23059 0.39531-0.28522 0.53001-0.0546 0.13469-0.13636 0.38155-0.1814 0.54877-0.0563 0.20808-0.43785 3.587-1.2118 10.728-0.62174 5.7329-1.1355 10.43-1.1426 10.436-0.007 0.007-0.49456 0.0334-1.0838 0.0588-0.5888 0.0254-1.0813 0.0355-1.0942 0.0225-0.0129-0.0129 0.13052-3.9511 0.31859-8.7518 0.20099-5.1283 0.33277-8.9258 0.31984-9.2062-0.0192-0.42034 0.002-0.64927 0.18181-1.9182 0.11217-0.7923 0.29816-2.1726 0.41366-3.067 0.11551-0.89445 0.29357-2.3302 0.39615-3.19 0.10217-0.86025 0.27105-2.3331 0.3753-3.2734 0.10383-0.94035 0.25437-2.3477 0.33486-3.1275 0.0805-0.77978 0.21099-2.1029 0.29064-2.9398 0.0797-0.8373 0.19224-2.1134 0.25062-2.8356 0.058-0.72267 0.13845-1.5012 0.17889-1.7306 0.0534-0.30483 0.0722-0.63009 0.0701-1.2093-0.002-0.65511-0.0192-0.8682-0.0963-1.2302-0.0513-0.24103-0.14886-0.60674-0.21684-0.81315-0.068-0.20642-0.2356-0.60048-0.37279-0.8757-0.1372-0.27522-0.37613-0.67805-0.53084-0.89573-0.15471-0.21726-0.47913-0.59256-0.72016-0.834-0.24145-0.24103-0.61675-0.56503-0.834-0.71932-0.21767-0.15471-0.63926-0.40158-0.93743-0.54919-0.29815-0.1472-0.72015-0.32526-0.93825-0.39573-0.21767-0.0705-0.53376-0.15638-0.70181-0.1914-0.16805-0.035-0.5225-0.0826-0.78727-0.10592-0.32318-0.0283-0.65094-0.0283-0.9954-0.00041-0.28189 0.0229-0.69514 0.0809-0.91823 0.12927-0.22267 0.0484-0.59464 0.15387-0.82605 0.23435-0.23143 0.0801-0.57504 0.21934-0.76312 0.30941-0.18848 0.0897-0.54502 0.29774-0.7923 0.46204-0.31608 0.20975-0.6059 0.45495-0.9741 0.82312-0.33986 0.34028-0.61633 0.66303-0.78728 0.92033-0.14511 0.21767-0.36487 0.60173-0.48872 0.8532-0.12343 0.25145-0.27939 0.63592-0.34653 0.85485-0.0738 0.24061-0.45619 2.2326-0.96742 5.0398-0.46496 2.5533-0.8511 4.625-0.85815 4.6033-0.007-0.0213 0.34569-4.2304 0.78397-9.354l0.795-9.3262-0.015-0.77175c-0.0154-0.56545-0.0446-0.88155-0.10967-1.1839-0.0488-0.22727-0.14595-0.59297-0.21559-0.81315-0.0697-0.22059-0.2356-0.62592-0.36904-0.90113-0.13344-0.27522-0.34987-0.66011-0.4808-0.85485-0.13095-0.19515-0.36864-0.50874-0.52834-0.69681-0.15972-0.18848-0.40533-0.4491-0.54544-0.57879-0.14053-0.13011-0.42493-0.36279-0.63301-0.5175-0.20767-0.15513-0.53042-0.36905-0.71766-0.4758-0.18723-0.10717-0.50957-0.26772-0.71599-0.35737-0.20641-0.0897-0.53584-0.21184-0.73141-0.27147-0.19558-0.0596-0.5396-0.14512-0.7644-0.19016-0.23101-0.0463-0.68972-0.0934-1.055-0.10842-0.40992-0.0167-0.80648-0.008-1.0842 0.0242-0.24061 0.0275-0.60674 0.0867-0.81315 0.13094-0.20642 0.0446-0.55336 0.13969-0.77145 0.21141-0.21768 0.0717-0.5838 0.21851-0.81315 0.32652-0.22935 0.10758-0.54836 0.27647-0.7089 0.3753-0.16055 0.0988-0.40449 0.26479-0.5421 0.36862-0.13761 0.10425-0.37155 0.30316-0.52 0.44244-0.14804 0.1397-0.38906 0.38489-0.53501 0.54544-0.14637 0.16054-0.39657 0.48706-0.5567 0.72558-0.16012 0.23852-0.36738 0.58546-0.46036 0.77062-0.0934 0.18557-0.23144 0.49707-0.30692 0.69264-0.0751 0.19516-0.17764 0.51417-0.22726 0.70932-0.05 0.19474-0.1151 0.49498-0.1447 0.6672-0.0296 0.17181-0.31358 2.6058-0.63092 5.4085s-0.58464 5.0878-0.59423 5.0786c-0.009-0.01 0.10217-3.4849 0.24812-7.7228 0.23811-6.918 0.25979-7.7542 0.21183-8.1832-0.0292-0.26229-0.0976-0.66594-0.1522-0.89655-0.055-0.2306-0.15929-0.58797-0.23186-0.7944-0.073-0.20641-0.24227-0.5913-0.37655-0.8553-0.13427-0.26396-0.34611-0.62633-0.47037-0.8052-0.12469-0.17889-0.35529-0.47663-0.51291-0.66094-0.15721-0.18473-0.44536-0.4758-0.64051-0.64635-0.19474-0.17097-0.53627-0.43285-0.75855-0.58172-0.22227-0.14928-0.58797-0.36195-0.81315-0.47329-0.22477-0.11093-0.57463-0.25979-0.77685-0.33068-0.20225-0.0709-0.51708-0.16722-0.69973-0.21393-0.18265-0.0463-0.52376-0.11175-0.7581-0.14511-0.26229-0.0371-0.731-0.0592-1.2184-0.0571zm0.10425 4.4732c0.46955 0.0121 0.61966 0.0329 0.90532 0.12552 0.20558 0.0667 0.46788 0.19474 0.65553 0.32026 0.1718 0.11509 0.40824 0.31608 0.52542 0.44702 0.11676 0.13052 0.29648 0.40658 0.39864 0.61299 0.11218 0.22643 0.20976 0.49915 0.24603 0.68805l0.0601 0.31275-0.52458 14.741c-0.40949 11.521-0.515 14.808-0.48206 15.049 0.0292 0.21433 0.093 0.40991 0.21017 0.64635 0.11217 0.22601 0.24895 0.41908 0.41075 0.58088 0.13344 0.13344 0.3386 0.29774 0.45619 0.36488 0.11719 0.0671 0.29566 0.15178 0.39616 0.18723 0.10049 0.0359 1.0083 0.19807 2.0174 0.36028 1.1697 0.18807 1.9557 0.29524 2.1684 0.29524 0.18348 0 0.45495-0.0313 0.6034-0.0696 0.14803-0.0384 0.38322-0.13302 0.52208-0.211 0.13886-0.0776 0.36029-0.25395 0.49165-0.39198 0.14344-0.15012 0.29565-0.36863 0.38072-0.54544 0.0776-0.16263 0.16054-0.41241 0.18431-0.55544 0.0238-0.14304 0.66386-5.768 1.4224-12.5 0.7581-6.7316 1.407-12.362 1.4416-12.51 0.0346-0.14929 0.13136-0.412 0.21559-0.5838 0.11843-0.24228 0.23769-0.3974 0.53126-0.68972 0.29064-0.28898 0.45161-0.41241 0.69138-0.53001 0.17223-0.0838 0.43494-0.18139 0.5838-0.21642 0.14887-0.035 0.44953-0.0638 0.6672-0.0638 0.2181 0 0.51333 0.0275 0.65678 0.0613 0.14344 0.0338 0.39031 0.12676 0.54877 0.20641 0.15846 0.0801 0.40116 0.23936 0.5396 0.35445 0.13803 0.1151 0.33943 0.33277 0.44702 0.48372 0.10759 0.15054 0.24979 0.41408 0.31651 0.58506 0.0663 0.17096 0.14053 0.45619 0.16471 0.63342 0.0392 0.28772-0.005 0.89819-0.417 5.6808-0.25396 2.947-0.81817 9.5175-1.2548 14.601-0.43617 5.0832-0.79312 9.3435-0.79312 9.4672 0 0.12385 0.0284 0.33361 0.063 0.46662 0.0346 0.13261 0.11383 0.34778 0.17638 0.47789 0.0679 0.1422 0.22977 0.35403 0.40616 0.53251 0.21768 0.21975 0.3728 0.3336 0.60549 0.44285 0.17222 0.0809 1.09 0.48121 2.04 0.88987l1.7272 0.74226 0.44452 0.0183c0.33861 0.0142 0.50249 0.002 0.68889-0.0525 0.13469-0.0392 0.35236-0.12552 0.4833-0.1914 0.13094-0.0663 0.34778-0.22184 0.48164-0.34611 0.13385-0.12426 0.31441-0.34527 0.40115-0.49122 0.0867-0.14595 0.19391-0.38781 0.23852-0.53668 0.0442-0.14887 0.91785-4.803 1.9407-10.342l1.8599-10.07 0.14679-0.30524c0.0905-0.18807 0.22976-0.38781 0.3632-0.52167 0.11927-0.11927 0.34945-0.28648 0.51166-0.37155 0.16222-0.0851 0.4145-0.18306 0.56128-0.21768 0.14679-0.0346 0.3703-0.063 0.49623-0.063 0.12636 0 0.34986 0.0284 0.49749 0.0634 0.14761 0.0346 0.36487 0.11842 0.4833 0.18598 0.11801 0.0676 0.30107 0.19891 0.40657 0.2919 0.1055 0.093 0.26688 0.28106 0.35862 0.41825 0.0917 0.13762 0.20725 0.35737 0.25688 0.48873 0.0496 0.13177 0.108 0.36362 0.12927 0.51541 0.0254 0.18056 0.0242 0.36113-0.005 0.52125-0.0238 0.13469-0.0713 0.57338-0.10551 0.97493-0.0346 0.40115-0.10091 1.1518-0.14761 1.668-0.0467 0.51582-0.16013 1.7168-0.25187 2.6688-0.0917 0.9516-0.26938 2.7063-0.39532 3.899-0.12593 1.1926-0.30357 2.8156-0.39531 3.607-0.0913 0.79102-0.23228 1.9828-0.31317 2.648-0.0809 0.66511-0.23144 1.8565-0.33485 2.648-0.103 0.79102-0.25354 1.9078-0.33402 2.4812-0.0805 0.57337-0.24895 1.718-0.37488 2.5437-0.12552 0.82567-0.33193 2.1205-0.45912 2.8773-0.12718 0.75682-0.32442 1.8736-0.43827 2.4812-0.11425 0.60756-0.30149 1.5458-0.41658 2.085-0.11509 0.53918-0.31942 1.4207-0.45411 1.9599-0.13428 0.53876-0.33861 1.2894-0.4537 1.668-0.11551 0.37822-0.27355 0.8661-0.35153 1.0842-0.078 0.21767-0.34945 0.912-0.60299 1.5429-0.25395 0.6305-0.58296 1.4282-0.73141 1.7722-0.14846 0.34402-0.38615 0.8778-0.52793 1.1864-0.1422 0.309-0.39698 0.83445-0.5667 1.1676-0.1693 0.3336-0.46454 0.87862-0.65511 1.2114-0.19098 0.33235-0.48246 0.8169-0.6476 1.0762-0.16471 0.25978-0.44994 0.68179-0.63342 0.93825-0.18348 0.25687-0.47371 0.64259-0.6451 0.85777-0.17139 0.21559-0.46996 0.57212-0.66387 0.7923-0.1939 0.22059-0.6968 0.73934-1.1176 1.153-0.42033 0.41324-0.98078 0.9366-1.2443 1.1626-0.26354 0.22602-0.89235 0.74142-1.397 1.1459-0.50457 0.40408-1.1526 0.9078-1.4399 1.1192-0.30107 0.22185-0.58589 0.46913-0.67262 0.5838-0.0826 0.10926-0.18807 0.27397-0.23394 0.36571-0.0463 0.0917-0.11843 0.2698-0.16096 0.39615l-0.0776 0.22935-0.0117 6.5156c-0.008 4.4231-0.0254 6.5156-0.0546 6.5156-0.0233 0-0.42159 0.0647-0.88485 0.14387-0.46329 0.0788-1.2352 0.20141-1.7147 0.27188-0.47997 0.0705-1.3244 0.1839-1.8765 0.25145-0.55252 0.0676-1.3886 0.16055-1.859 0.20642-0.46995 0.0459-1.2393 0.11175-1.7097 0.14595-0.54168 0.0396-2.1242 0.0796-4.3226 0.10967-2.5816 0.0355-4.27 0.0355-6.6094 0.00041-1.7281-0.0263-3.4044-0.0668-3.7255-0.0901-0.32109-0.0238-1.0996-0.0897-1.7306-0.14678-0.6305-0.0567-1.5596-0.15054-2.0642-0.2085-0.50457-0.0575-1.3264-0.15971-1.8268-0.22685-0.49998-0.0671-1.213-0.17014-1.5846-0.22852-0.37113-0.0583-0.7548-0.11759-0.85237-0.13177l-0.17723-0.0251v-6.0949c0-5.333-0.008-6.1249-0.0638-6.3392-0.035-0.13469-0.13093-0.37279-0.2135-0.52959-0.0993-0.1889-0.24603-0.37572-0.43576-0.55461-0.20225-0.19098-0.3924-0.32067-0.65178-0.44452-0.20099-0.0959-0.64718-0.31108-0.9912-0.47747-0.34402-0.1668-0.83775-0.42575-1.0967-0.57587-0.25937-0.15012-0.66261-0.39823-0.89655-0.55127-0.23394-0.15346-0.63176-0.43202-0.88403-0.61967-0.25228-0.18765-0.65552-0.50748-0.89655-0.71098-0.2406-0.2035-0.64593-0.56378-0.9003-0.80025-0.25395-0.23645-0.68888-0.67847-0.96577-0.98243-0.27689-0.30399-0.65552-0.73434-0.84113-0.957-0.18598-0.22226-0.54293-0.6772-0.79357-1.0108-0.25062-0.3336-0.66971-0.9303-0.93113-1.3261-0.26187-0.39573-0.62716-0.97327-0.81232-1.2827-0.18515-0.30983-0.52793-0.90075-0.76103-1.3136-0.23352-0.41283-0.66469-1.2385-0.95745-1.8348-0.29315-0.59631-0.70222-1.4595-0.90945-1.9182-0.20683-0.4587-0.49206-1.1063-0.63384-1.4386-0.1422-0.33277-0.4441-1.058-0.67095-1.6121-0.22726-0.55419-0.51541-1.314-0.64051-1.6888-0.1251-0.37488-0.36071-1.1318-0.52334-1.6822-0.16305-0.55044-0.48205-1.6763-0.7089-2.502-0.22726-0.82568-0.52542-1.9236-0.66261-2.4394-0.13719-0.51625-0.38113-1.4449-0.54252-2.0642-0.16137-0.61925-0.54877-2.1205-0.86107-3.336-0.31233-1.2155-0.74685-2.9044-0.96533-3.753-0.21892-0.84863-0.42325-1.6651-0.45411-1.814-0.0313-0.14887-0.0571-0.39866-0.058-0.55419-0.00082-0.15596 0.0279-0.42785 0.0642-0.60465 0.0363-0.17681 0.13678-0.47163 0.2231-0.65511 0.0863-0.18348 0.24645-0.45119 0.35528-0.59506 0.10884-0.14386 0.33026-0.36487 0.49164-0.49123 0.16138-0.12635 0.42701-0.29232 0.59006-0.36904 0.16305-0.0767 0.41866-0.17348 0.56754-0.21559 0.18807-0.053 0.41199-0.0763 0.72975-0.0763 0.29732 0 0.55419 0.025 0.72975 0.0709 0.14928 0.0392 0.44952 0.15846 0.6672 0.26563 0.33526 0.16429 0.45411 0.2527 0.77272 0.57295 0.26438 0.26605 0.42159 0.46621 0.52751 0.67095 0.0834 0.16055 1.3331 2.9753 2.7781 6.255 1.4449 3.2797 2.7526 6.2446 2.9065 6.5886 0.15345 0.34403 0.34611 0.7539 0.42825 0.91073 0.0826 0.15762 0.25563 0.39198 0.38698 0.52333 0.13052 0.13052 0.35111 0.29815 0.48956 0.37196 0.13886 0.0738 0.3336 0.16555 0.43284 0.20391 0.1497 0.0575 0.42951 0.0742 1.64 0.0988 1.1793 0.0242 1.5717 0.0471 2.0428 0.1201 0.32109 0.0496 0.84772 0.14553 1.1701 0.21225 0.32235 0.0671 0.84818 0.19599 1.168 0.28648 0.31943 0.0905 0.78773 0.23852 1.04 0.32901 0.25228 0.0905 0.6526 0.25186 0.88942 0.35861 0.23727 0.10717 0.67805 0.31818 0.97995 0.46913 0.30233 0.15095 0.91283 0.48164 1.3569 0.73517 0.44453 0.25354 0.9228 0.50832 1.0634 0.56629 0.19808 0.0813 0.34945 0.10884 0.67263 0.12218 0.3019 0.0121 0.49122-0.002 0.68554-0.053 0.14762-0.0384 0.34486-0.10842 0.43785-0.15555 0.093-0.0471 0.25812-0.15595 0.36654-0.24186 0.10842-0.0859 0.2648-0.23727 0.34736-0.3361 0.083-0.0993 0.20684-0.29148 0.27522-0.42743 0.0688-0.13635 0.15138-0.37196 0.18348-0.52375s0.0588-0.37947 0.0588-0.50541c0-0.12635-0.0284-0.34944-0.063-0.49622-0.0343-0.14675-0.12941-0.39361-0.21072-0.54915-0.0917-0.17389-0.24729-0.37656-0.40575-0.52793-0.14553-0.13886-0.53835-0.4195-0.90367-0.6451-0.35528-0.21934-0.90908-0.54084-1.2302-0.71432-0.32109-0.17305-0.82898-0.42742-1.1288-0.56503-0.30024-0.13761-0.80692-0.35654-1.1259-0.48623-0.31942-0.12927-0.96532-0.36404-1.4357-0.52083-0.46996-0.1568-1.2018-0.37071-1.6263-0.47538-0.42409-0.10425-0.85778-0.20141-0.96285-0.21559l-0.1914-0.0263-0.0279-2.987c-0.0154-1.643-0.0284-9.5782-0.0288-17.634l-0.001-14.646 0.0671-0.25812c0.0367-0.14178 0.11967-0.36279 0.18431-0.49081 0.0646-0.12802 0.20182-0.34653 0.30441-0.48622 0.103-0.13928 0.2698-0.32109 0.37071-0.40407 0.10133-0.083 0.29607-0.21809 0.43285-0.30066 0.13677-0.0826 0.37113-0.18682 0.51999-0.23144 0.14929-0.0446 0.46329-0.10967 0.69806-0.14428 0.23518-0.0346 0.58213-0.0626 0.77145-0.0626 0.18931 0.00041 0.46662 0.0296 0.61549 0.0646 0.14929 0.035 0.40241 0.12844 0.56296 0.20767 0.16096 0.0792 0.38906 0.22393 0.50707 0.32151 0.11843 0.0976 0.29899 0.28022 0.40198 0.40658 0.103 0.12593 0.25271 0.3607 0.33361 0.52124 0.0805 0.16055 0.17556 0.42326 0.21141 0.5838 0.053 0.2377 0.12761 2.5007 0.40241 12.188 0.26938 9.4792 0.35028 11.944 0.39907 12.131 0.0338 0.12927 0.12093 0.34903 0.19432 0.48873 0.0738 0.14136 0.2552 0.37572 0.41033 0.53001 0.18848 0.18807 0.37655 0.32526 0.58505 0.42826 0.1693 0.083 0.44744 0.18014 0.61799 0.21558 0.27063 0.0559 0.52751 0.0584 2.0224 0.0204 0.94155-0.0242 1.8473-0.0538 2.012-0.0663 0.16514-0.0125 0.39949-0.0517 0.52125-0.0876 0.12177-0.0359 0.33402-0.12427 0.47163-0.19682 0.13761-0.0721 0.36279-0.24395 0.5004-0.38156 0.14637-0.14637 0.30692-0.36321 0.38739-0.5225 0.0776-0.15387 0.16347-0.417 0.19766-0.60465 0.0338-0.18514 0.4687-6.609 0.98122-14.489 0.50625-7.7865 0.93698-14.458 0.957-14.824 0.0263-0.4808 0.0617-0.74893 0.12635-0.9591 0.0496-0.16054 0.14887-0.40449 0.22101-0.5421 0.0792-0.15095 0.27189-0.39281 0.4858-0.60924 0.28649-0.28981 0.42326-0.3924 0.70932-0.53251 0.19516-0.0955 0.47664-0.20099 0.6255-0.23477 0.18765-0.0421 0.44411-0.0563 0.834-0.0459z"/>
 </g>

</g>
</svg>