<?xml version="1.0" encoding="utf-8"?>
<svg version="1.1" xmlns="http://www.w3.org/2000/svg" xmlns:xlink="http://www.w3.org/1999/xlink" x="0px" y="0px" viewBox="0 0 1024 1024" enable-background="new 0 0 1024 1024" xml:space="preserve">
<g transform="translate(0 128)">
<path fill="#00cb8d" d="m527.27 299.54c-1.28 0-2.37 0.48-3.22 1.33-0.88 0.88-1.34 2.02-1.34 3.22 0 1.29 0.48 2.37 1.34 3.22 0.87 0.88 1.98 1.24 3.22 1.24 1.2 0 2.34-0.45 3.22-1.33 0.85-0.85 1.33-1.94 1.33-3.22 0-1.2-0.48-2.27-1.33-3.13-0.88-0.87-2.02-1.33-3.22-1.33zm-250.57 12.5v0.02c-0.45 0-0.96 0.03-1.17 0.06s-0.51 0.09-0.67 0.13c-0.16 0.03-0.48 0.13-0.71 0.21-0.22 0.08-0.56 0.22-0.75 0.31-0.18 0.09-0.45 0.23-0.58 0.32-0.14 0.08-0.43 0.27-0.63 0.43-0.21 0.16-0.55 0.44-0.74 0.64-0.2 0.19-0.48 0.5-0.62 0.7-0.15 0.19-0.36 0.48-0.46 0.65-0.11 0.18-0.28 0.49-0.38 0.71-0.11 0.22-0.25 0.57-0.32 0.79-0.07 0.21-0.17 0.55-0.21 0.75s-0.1 0.59-0.13 0.86c-0.02 0.28-0.3 4.51-0.62 9.4-0.32 4.9-0.6 9.03-0.62 9.18-0.02 0.17-0.09-2.13-0.21-6.26-0.12-4.45-0.19-6.62-0.23-6.83-0.03-0.18-0.1-0.48-0.15-0.67-0.05-0.2-0.15-0.52-0.22-0.71-0.08-0.2-0.22-0.51-0.31-0.69-0.09-0.19-0.31-0.54-0.47-0.79-0.17-0.25-0.49-0.64-0.72-0.89-0.23-0.24-0.56-0.54-0.72-0.67-0.16-0.14-0.45-0.35-0.66-0.48-0.2-0.13-0.57-0.34-0.83-0.46s-0.65-0.28-0.88-0.36c-0.23-0.07-0.6-0.17-0.82-0.21-0.26-0.06-0.64-0.09-1.12-0.11-0.64-0.02-0.82-0.01-1.5 0.09-0.43 0.06-0.95 0.15-1.17 0.21s-0.53 0.16-0.69 0.22-0.48 0.2-0.71 0.31-0.59 0.33-0.81 0.47c-0.22 0.15-0.57 0.41-0.77 0.6-0.21 0.18-0.53 0.5-0.71 0.72s-0.45 0.57-0.59 0.79c-0.15 0.23-0.36 0.6-0.47 0.84-0.12 0.24-0.28 0.63-0.36 0.87-0.08 0.25-0.18 0.65-0.24 0.9l-0.09 0.45-0.02 15.88-0.02 15.87-1.9-4.31c-1.04-2.37-1.98-4.46-2.08-4.65-0.11-0.18-0.31-0.5-0.46-0.71-0.15-0.2-0.43-0.54-0.62-0.75-0.19-0.2-0.49-0.49-0.67-0.64-0.18-0.14-0.51-0.39-0.75-0.54-0.23-0.15-0.61-0.37-0.85-0.48-0.24-0.12-0.63-0.28-0.88-0.36s-0.63-0.18-0.85-0.23c-0.23-0.04-0.65-0.1-0.95-0.13-0.4-0.03-0.67-0.03-1.1 0-0.31 0.03-0.71 0.08-0.88 0.11-0.17 0.04-0.51 0.12-0.75 0.19s-0.59 0.19-0.79 0.27-0.54 0.25-0.76 0.37c-0.22 0.13-0.52 0.32-0.69 0.43-0.16 0.12-0.44 0.34-0.62 0.51-0.18 0.16-0.46 0.44-0.62 0.62-0.15 0.17-0.41 0.52-0.57 0.75-0.16 0.24-0.38 0.61-0.49 0.81-0.1 0.21-0.25 0.55-0.33 0.75-0.07 0.21-0.18 0.53-0.22 0.71-0.05 0.19-0.12 0.49-0.15 0.68-0.04 0.18-0.08 0.63-0.09 1.01-0.01 0.42 0 0.82 0.03 1.08 0.03 0.23 0.11 0.7 0.19 1.06 0.08 0.35 0.55 2.28 1.06 4.27 0.5 2 1.01 3.99 1.13 4.44 0.11 0.45 0.35 1.33 0.52 1.96l0.31 1.15 0.79 5.86c0.43 3.22 0.77 5.87 0.77 5.88-0.01 0.01-0.56 0.07-1.22 0.13s-1.2 0.11-1.2 0.1c0 0-0.98-4.6-2.18-10.22-1.19-5.62-2.21-10.32-2.25-10.45s-0.12-0.31-0.17-0.42c-0.05-0.1-0.18-0.3-0.28-0.44s-0.31-0.37-0.46-0.51c-0.16-0.14-0.41-0.34-0.56-0.43-0.16-0.09-0.42-0.22-0.59-0.28-0.17-0.07-0.49-0.16-0.71-0.19-0.27-0.05-0.5-0.07-0.78-0.05-0.22 0.02-0.57 0.07-0.77 0.13-0.21 0.05-0.49 0.14-0.63 0.2s-0.36 0.18-0.5 0.26c-0.13 0.09-0.37 0.27-0.51 0.41-0.15 0.15-0.35 0.37-0.45 0.51s-0.23 0.36-0.3 0.5-0.17 0.38-0.22 0.54c-0.07 0.22-0.1 0.44-0.11 0.84-0.02 0.4-0.01 0.62 0.04 0.87 0.04 0.19 0.9 4.87 1.91 10.4 1.2 6.6 1.82 10.08 1.79 10.1-0.03 0.01-0.56 0.17-1.19 0.35-0.64 0.18-1.16 0.32-1.16 0.31-0.01-0.01-1.04-3.68-2.3-8.15-1.53-5.46-2.32-8.21-2.41-8.38-0.07-0.14-0.2-0.35-0.28-0.48-0.09-0.13-0.28-0.34-0.42-0.48-0.15-0.14-0.35-0.32-0.46-0.38-0.1-0.07-0.3-0.19-0.44-0.26s-0.43-0.18-0.63-0.24c-0.32-0.1-0.44-0.11-0.93-0.11-0.44 0-0.63 0.02-0.88 0.08-0.18 0.05-0.54 0.19-0.82 0.32-0.28 0.12-0.62 0.31-0.77 0.41-0.14 0.11-0.39 0.32-0.54 0.49-0.15 0.16-0.35 0.42-0.45 0.58-0.1 0.17-0.23 0.45-0.29 0.64-0.07 0.19-0.14 0.49-0.17 0.66s-0.04 0.48-0.02 0.69c0.01 0.2 0.06 0.51 0.1 0.68 0.05 0.18 1.49 5.92 3.21 12.77 1.72 6.84 3.14 12.48 3.14 12.53 0.01 0.05-0.01 0.08-0.07 0.09-0.04 0.01-0.34 0.08-0.66 0.16-0.32 0.07-0.62 0.15-0.66 0.16-0.05 0.02-0.78-0.9-3.24-4.07-1.75-2.25-3.3-4.22-3.44-4.36-0.14-0.15-0.37-0.35-0.5-0.45-0.14-0.1-0.39-0.24-0.55-0.32s-0.42-0.19-0.57-0.24c-0.16-0.04-0.47-0.1-0.69-0.13-0.29-0.04-0.49-0.03-0.76 0-0.21 0.03-0.53 0.1-0.72 0.16-0.19 0.05-0.45 0.16-0.59 0.23s-0.36 0.21-0.5 0.3c-0.14 0.1-0.37 0.3-0.51 0.45-0.14 0.14-0.31 0.35-0.39 0.46-0.07 0.11-0.21 0.36-0.3 0.55-0.08 0.19-0.2 0.51-0.25 0.72-0.07 0.27-0.09 0.49-0.09 0.87 0 0.3 0.03 0.62 0.07 0.79s0.11 0.42 0.17 0.57c0.05 0.14 0.75 1.47 1.55 2.95s1.8 3.34 2.24 4.13 1.02 1.83 1.29 2.32c0.28 0.48 0.65 1.12 0.84 1.43 0.18 0.31 0.48 0.78 0.65 1.05 0.18 0.26 0.6 0.85 0.94 1.3 0.33 0.46 0.87 1.15 1.19 1.55 0.31 0.39 0.8 0.98 1.08 1.31s0.76 0.86 1.06 1.19c0.31 0.32 0.74 0.77 0.97 0.98 0.23 0.22 0.59 0.55 0.79 0.74 0.21 0.19 0.62 0.53 0.9 0.75 0.29 0.23 0.7 0.55 0.92 0.7s0.58 0.39 0.8 0.52c0.21 0.14 0.62 0.38 0.89 0.53 0.28 0.15 0.75 0.38 1.06 0.51 0.31 0.14 0.83 0.34 1.16 0.46 0.34 0.11 0.88 0.27 1.19 0.35 0.32 0.08 0.77 0.18 0.99 0.22l0.41 0.07 0.04 0.15c0.02 0.09 0.25 1.03 0.52 2.09 0.27 1.07 0.49 1.97 0.5 2.01 0.02 0.04-0.03 0.09-0.12 0.13-0.08 0.04-0.41 0.18-0.74 0.31-0.33 0.12-0.9 0.38-1.28 0.56-0.37 0.18-0.9 0.45-1.17 0.61s-0.64 0.41-0.84 0.56c-0.19 0.14-0.48 0.37-0.64 0.51-0.15 0.13-0.39 0.38-0.52 0.55-0.14 0.17-0.32 0.43-0.4 0.57s-0.18 0.38-0.23 0.53-0.1 0.41-0.11 0.57c-0.02 0.16-0.01 0.42 0.02 0.57 0.03 0.16 1.55 5.9 3.38 12.76 2.64 9.88 3.37 12.54 3.49 12.78 0.1 0.2 0.23 0.39 0.41 0.56 0.14 0.15 0.37 0.33 0.51 0.4s0.36 0.16 0.49 0.2c0.14 0.03 0.41 0.06 0.61 0.06 0.29 0 0.43-0.02 0.67-0.11 0.17-0.06 0.44-0.19 0.59-0.3 0.16-0.1 0.36-0.28 0.45-0.4 0.1-0.11 0.22-0.3 0.28-0.42 0.06-0.11 0.13-0.3 0.16-0.42 0.03-0.11 0.06-0.36 0.06-0.55v-0.35l-2.86-10.74c-1.57-5.91-2.85-10.75-2.85-10.75 0.01-0.01 0.27-0.03 0.58-0.06s0.93-0.1 1.37-0.15c0.45-0.06 1.18-0.16 1.63-0.23s1.19-0.19 1.65-0.27 1.32-0.24 1.92-0.36c0.59-0.11 1.64-0.33 2.33-0.48s1.78-0.39 2.42-0.54 2.06-0.5 3.15-0.77 2.59-0.67 3.33-0.87c0.74-0.21 1.35-0.38 1.36-0.38s0.02 5.92 0.03 13.15l0.01 13.14 0.11 0.3c0.06 0.16 0.18 0.4 0.26 0.53 0.09 0.13 0.25 0.32 0.37 0.43 0.12 0.1 0.32 0.24 0.46 0.31 0.13 0.07 0.35 0.15 0.48 0.18 0.13 0.04 0.39 0.07 0.57 0.07 0.19 0 0.45-0.03 0.58-0.07 0.14-0.03 0.36-0.12 0.5-0.19 0.14-0.08 0.37-0.25 0.51-0.39 0.15-0.14 0.31-0.36 0.38-0.5s0.16-0.35 0.21-0.48l0.07-0.23 0.02-19.32 0.01-19.32 0.07 0.03c0.04 0.01 0.65 0.16 1.36 0.31 0.71 0.16 1.72 0.38 2.25 0.48s1.41 0.26 1.94 0.35c0.54 0.09 1.43 0.24 1.97 0.32 0.53 0.08 1.5 0.21 2.14 0.29s1.82 0.21 2.61 0.29 1.81 0.17 2.27 0.21c0.46 0.03 1.15 0.08 1.52 0.1 0.38 0.02 1.08 0.06 1.55 0.09 0.47 0.02 1.68 0.06 2.7 0.08 1.27 0.03 2.44 0.03 3.73 0 1.04-0.02 2.24-0.06 2.68-0.08 0.43-0.03 1.21-0.07 1.73-0.11 0.51-0.03 1.37-0.1 1.9-0.14 0.52-0.05 1.24-0.12 1.58-0.15s1.04-0.11 1.54-0.17c0.51-0.06 1.39-0.17 1.96-0.25 0.58-0.08 1.4-0.2 1.84-0.27 0.43-0.07 1.27-0.21 1.85-0.31 0.59-0.11 1.52-0.28 2.07-0.4 0.55-0.11 1.1-0.23 1.23-0.27 0.13-0.03 0.28-0.06 0.33-0.06h0.09v19.1c0 13.63 0.01 19.16 0.04 19.31 0.03 0.13 0.11 0.36 0.2 0.53 0.1 0.21 0.23 0.4 0.4 0.57 0.15 0.15 0.37 0.31 0.53 0.39 0.14 0.07 0.37 0.16 0.49 0.2 0.13 0.03 0.38 0.06 0.57 0.06 0.18 0 0.45-0.03 0.58-0.07 0.14-0.03 0.35-0.11 0.47-0.17 0.13-0.06 0.35-0.23 0.51-0.37 0.19-0.18 0.33-0.36 0.43-0.56 0.09-0.16 0.18-0.42 0.22-0.57 0.05-0.24 0.06-2.07 0.06-12.59v-12.31l0.34 0.08c0.19 0.04 0.91 0.19 1.6 0.32 0.68 0.14 1.78 0.35 2.44 0.46 0.65 0.12 1.79 0.3 2.52 0.42s1.66 0.26 2.06 0.31c0.41 0.06 1.33 0.18 2.07 0.28 0.73 0.09 1.86 0.22 2.5 0.29 0.64 0.06 1.5 0.15 1.9 0.18 0.4 0.04 1.1 0.1 1.56 0.13s1.33 0.08 1.94 0.11c0.61 0.02 1.66 0.04 2.33 0.03 1.01-0.01 1.21 0 1.21 0.04s-0.72 4.9-1.6 10.8c-1.39 9.26-1.61 10.79-1.59 11.06 0.01 0.18 0.07 0.44 0.12 0.6 0.06 0.15 0.16 0.36 0.24 0.48 0.07 0.12 0.25 0.32 0.39 0.45 0.15 0.14 0.38 0.3 0.57 0.38l0.31 0.15h0.52c0.45 0 0.56-0.01 0.79-0.09 0.15-0.06 0.37-0.16 0.48-0.24 0.12-0.07 0.29-0.21 0.39-0.31 0.09-0.09 0.23-0.26 0.3-0.37 0.07-0.12 0.17-0.31 0.21-0.43 0.05-0.14 0.82-5.19 1.98-12.88l1.91-12.65-0.03-0.45c-0.01-0.24-0.05-0.55-0.09-0.7-0.03-0.14-0.11-0.36-0.16-0.48-0.06-0.12-0.18-0.34-0.28-0.49-0.1-0.14-0.32-0.4-0.5-0.58-0.17-0.17-0.46-0.41-0.64-0.54-0.19-0.13-0.54-0.35-0.79-0.49s-0.69-0.35-0.96-0.47c-0.28-0.12-0.72-0.29-0.98-0.38-0.27-0.09-0.73-0.24-1.03-0.33s-0.59-0.16-0.63-0.16h-0.08l0.32-2.21 0.31-2.21 0.44-0.15c0.24-0.09 0.69-0.26 0.99-0.4 0.3-0.13 0.79-0.37 1.08-0.54 0.3-0.16 0.73-0.43 0.97-0.59 0.25-0.16 0.6-0.42 0.8-0.57 0.19-0.15 0.57-0.46 0.83-0.7 0.27-0.23 0.69-0.63 0.94-0.9 0.25-0.26 0.63-0.67 0.84-0.91s0.53-0.62 0.71-0.85 0.51-0.67 0.72-0.96c0.22-0.3 0.6-0.86 0.86-1.25 0.25-0.39 0.67-1.06 0.92-1.48 0.25-0.43 0.61-1.04 0.79-1.38 0.19-0.33 0.51-0.92 0.72-1.31s0.5-0.99 0.65-1.33c0.16-0.35 0.4-0.92 0.55-1.28 0.15-0.35 0.52-1.25 0.82-2 0.29-0.74 0.84-2.13 1.2-3.08 0.37-0.96 0.99-2.58 1.38-3.6 0.39-1.03 0.74-2.03 0.79-2.23 0.06-0.27 0.09-0.5 0.09-0.89 0-0.42-0.03-0.6-0.11-0.93-0.06-0.23-0.18-0.57-0.27-0.75-0.09-0.19-0.26-0.46-0.36-0.6s-0.3-0.36-0.44-0.49c-0.14-0.12-0.38-0.3-0.54-0.4-0.15-0.09-0.45-0.22-0.65-0.3-0.3-0.1-0.46-0.13-0.83-0.15-0.38-0.01-0.53 0-0.82 0.07-0.19 0.05-0.5 0.17-0.69 0.26s-0.48 0.28-0.65 0.42c-0.17 0.13-0.42 0.38-0.55 0.55-0.15 0.18-1.2 2-2.8 4.8-1.4 2.48-2.56 4.52-2.57 4.54s-0.19 0.01-0.41-0.02c-0.22-0.04-0.52-0.08-0.67-0.1-0.18-0.01-0.29-0.04-0.29-0.07s0.81-5.78 1.8-12.79c0.98-7.01 1.81-12.84 1.84-12.97s0.05-0.47 0.05-0.77c-0.01-0.41-0.03-0.63-0.09-0.88-0.05-0.18-0.19-0.52-0.31-0.76-0.16-0.33-0.29-0.51-0.53-0.77-0.17-0.18-0.42-0.4-0.56-0.5-0.13-0.09-0.35-0.21-0.48-0.27s-0.43-0.15-0.67-0.2c-0.31-0.08-0.57-0.11-0.86-0.11-0.28 0-0.52 0.03-0.74 0.09-0.18 0.04-0.47 0.16-0.66 0.25-0.18 0.1-0.45 0.28-0.61 0.41-0.15 0.13-0.37 0.35-0.47 0.47-0.1 0.13-0.25 0.35-0.33 0.48s-0.2 0.39-0.28 0.59c-0.12 0.32-0.3 1.36-1.51 8.68-0.76 4.57-1.38 8.32-1.39 8.33-0.02 0.01-0.51-0.07-1.1-0.18-0.6-0.11-1.09-0.2-1.09-0.21-0.01 0 0.36-4.65 0.82-10.34 0.47-5.68 0.85-10.5 0.87-10.69 0.01-0.23-0.01-0.49-0.05-0.74-0.04-0.21-0.12-0.54-0.19-0.72-0.07-0.19-0.21-0.48-0.32-0.65-0.1-0.17-0.31-0.43-0.45-0.57-0.14-0.15-0.34-0.32-0.44-0.39-0.11-0.07-0.27-0.17-0.38-0.22-0.1-0.06-0.29-0.13-0.41-0.18-0.2-0.07-0.33-0.08-0.84-0.08-0.36 0.01-0.71 0.03-0.87 0.07-0.15 0.03-0.42 0.13-0.6 0.22-0.19 0.09-0.46 0.25-0.6 0.36-0.14 0.1-0.35 0.29-0.46 0.41-0.1 0.12-0.28 0.35-0.38 0.5-0.1 0.16-0.23 0.4-0.28 0.53-0.06 0.14-0.14 0.38-0.18 0.55-0.06 0.21-0.44 3.59-1.22 10.73-0.62 5.73-1.13 10.43-1.14 10.43-0.01 0.01-0.49 0.04-1.08 0.06-0.59 0.03-1.08 0.04-1.1 0.03-0.01-0.02 0.13-3.95 0.32-8.76 0.2-5.12 0.33-8.92 0.32-9.2-0.02-0.42 0-0.65 0.18-1.92 0.12-0.79 0.3-2.17 0.42-3.07 0.11-0.89 0.29-2.33 0.39-3.19 0.11-0.86 0.27-2.33 0.38-3.27 0.1-0.94 0.25-2.35 0.33-3.13 0.09-0.78 0.21-2.1 0.29-2.94s0.2-2.11 0.26-2.83c0.05-0.73 0.13-1.5 0.17-1.73 0.06-0.31 0.08-0.63 0.07-1.21 0-0.66-0.01-0.87-0.09-1.23-0.05-0.24-0.15-0.61-0.22-0.82-0.07-0.2-0.23-0.6-0.37-0.87-0.14-0.28-0.38-0.68-0.53-0.9-0.16-0.21-0.48-0.59-0.72-0.83-0.25-0.24-0.62-0.57-0.84-0.72-0.22-0.16-0.64-0.4-0.94-0.55-0.29-0.15-0.71-0.33-0.93-0.4s-0.54-0.15-0.7-0.19c-0.17-0.03-0.53-0.08-0.79-0.1-0.32-0.03-0.65-0.03-1 0-0.28 0.02-0.69 0.08-0.92 0.13-0.22 0.04-0.59 0.15-0.82 0.23s-0.58 0.22-0.76 0.31c-0.19 0.09-0.55 0.3-0.8 0.46-0.31 0.21-0.6 0.46-0.97 0.82-0.34 0.34-0.62 0.67-0.79 0.92-0.14 0.22-0.36 0.61-0.49 0.86-0.12 0.25-0.28 0.63-0.34 0.85-0.08 0.24-0.46 2.24-0.97 5.04-0.47 2.56-0.85 4.63-0.86 4.61-0.01-0.03 0.35-4.23 0.79-9.36l0.79-9.32-0.02-0.78c-0.01-0.56-0.04-0.88-0.1-1.18-0.05-0.23-0.15-0.59-0.22-0.81s-0.24-0.63-0.37-0.9c-0.13-0.28-0.35-0.66-0.48-0.86-0.13-0.19-0.37-0.51-0.53-0.7-0.16-0.18-0.4-0.44-0.54-0.57s-0.43-0.37-0.64-0.52c-0.2-0.16-0.53-0.37-0.72-0.48-0.18-0.11-0.5-0.27-0.71-0.36s-0.54-0.21-0.73-0.27c-0.2-0.06-0.54-0.14-0.77-0.19-0.23-0.04-0.69-0.09-1.05-0.11-0.41-0.01-0.81 0-1.09 0.03-0.24 0.03-0.6 0.09-0.81 0.13s-0.55 0.14-0.77 0.21-0.58 0.22-0.81 0.33c-0.23 0.1-0.55 0.27-0.71 0.37s-0.41 0.27-0.55 0.37c-0.13 0.11-0.37 0.31-0.51 0.44-0.15 0.14-0.39 0.39-0.54 0.55s-0.4 0.49-0.56 0.73c-0.16 0.23-0.36 0.58-0.46 0.77-0.09 0.18-0.23 0.49-0.3 0.69-0.08 0.19-0.18 0.51-0.23 0.71-0.05 0.19-0.12 0.49-0.14 0.66-0.03 0.18-0.32 2.61-0.64 5.41-0.31 2.81-0.58 5.09-0.59 5.08s0.1-3.48 0.25-7.72c0.24-6.92 0.26-7.76 0.21-8.18-0.03-0.27-0.1-0.67-0.15-0.9-0.06-0.23-0.16-0.59-0.24-0.8-0.07-0.2-0.24-0.59-0.37-0.85s-0.35-0.63-0.47-0.81c-0.13-0.17-0.36-0.47-0.51-0.66-0.16-0.18-0.45-0.47-0.65-0.64-0.19-0.17-0.53-0.44-0.75-0.58-0.23-0.15-0.59-0.37-0.82-0.48-0.22-0.11-0.57-0.26-0.77-0.33-0.21-0.07-0.52-0.17-0.7-0.21-0.18-0.05-0.53-0.12-0.76-0.15-0.26-0.04-0.73-0.06-1.22-0.06zm0.1 4.49c0.47 0.01 0.62 0.03 0.91 0.13 0.2 0.06 0.46 0.19 0.65 0.32 0.17 0.11 0.41 0.31 0.52 0.44 0.12 0.13 0.3 0.41 0.4 0.62 0.12 0.22 0.21 0.5 0.25 0.68l0.06 0.32-0.52 14.74c-0.41 11.52-0.52 14.81-0.49 15.05 0.03 0.21 0.1 0.41 0.21 0.64 0.12 0.23 0.25 0.42 0.42 0.58 0.13 0.14 0.33 0.3 0.45 0.37s0.3 0.15 0.4 0.19c0.1 0.03 1.01 0.19 2.01 0.36 1.17 0.18 1.96 0.29 2.17 0.29 0.19 0 0.46-0.03 0.61-0.07 0.14-0.04 0.38-0.13 0.52-0.21s0.36-0.25 0.49-0.39c0.14-0.15 0.3-0.37 0.38-0.55 0.08-0.16 0.16-0.41 0.18-0.55 0.03-0.14 0.67-5.77 1.43-12.5s1.4-12.36 1.44-12.51c0.03-0.15 0.13-0.41 0.21-0.58 0.12-0.25 0.24-0.4 0.54-0.69 0.29-0.29 0.45-0.42 0.69-0.53 0.17-0.09 0.43-0.19 0.58-0.22 0.15-0.04 0.45-0.06 0.67-0.06s0.51 0.02 0.65 0.06c0.15 0.03 0.4 0.12 0.55 0.2 0.16 0.08 0.4 0.24 0.54 0.36 0.14 0.11 0.34 0.33 0.45 0.48s0.25 0.41 0.32 0.59c0.06 0.17 0.14 0.45 0.16 0.63 0.04 0.29 0 0.9-0.42 5.68-0.25 2.95-0.81 9.52-1.25 14.6-0.44 5.09-0.79 9.34-0.79 9.47 0 0.12 0.03 0.33 0.06 0.47 0.03 0.13 0.11 0.34 0.18 0.47 0.06 0.15 0.23 0.36 0.4 0.54 0.22 0.22 0.37 0.33 0.61 0.44 0.17 0.08 1.09 0.48 2.04 0.89l1.73 0.74 0.44 0.02c0.34 0.01 0.5 0 0.69-0.05 0.13-0.04 0.35-0.13 0.48-0.2 0.13-0.06 0.35-0.22 0.48-0.34 0.14-0.13 0.32-0.35 0.41-0.49 0.08-0.15 0.19-0.39 0.23-0.54 0.05-0.15 0.92-4.8 1.94-10.34l1.86-10.07 0.15-0.3c0.09-0.19 0.23-0.39 0.36-0.53 0.12-0.12 0.35-0.28 0.52-0.37 0.16-0.08 0.41-0.18 0.56-0.22 0.14-0.03 0.37-0.06 0.49-0.06 0.13 0 0.35 0.03 0.5 0.06 0.15 0.04 0.36 0.12 0.48 0.19s0.3 0.2 0.41 0.29c0.1 0.1 0.27 0.28 0.36 0.42s0.21 0.36 0.26 0.49 0.1 0.36 0.13 0.51c0.02 0.18 0.02 0.37-0.01 0.53-0.02 0.13-0.07 0.57-0.11 0.97-0.03 0.4-0.1 1.15-0.14 1.67-0.05 0.51-0.16 1.72-0.25 2.67-0.1 0.95-0.28 2.7-0.4 3.9-0.13 1.19-0.3 2.81-0.4 3.6-0.09 0.79-0.23 1.99-0.31 2.65-0.08 0.67-0.23 1.86-0.33 2.65-0.11 0.79-0.26 1.91-0.34 2.48s-0.25 1.72-0.37 2.54c-0.13 0.83-0.33 2.12-0.46 2.88s-0.33 1.87-0.44 2.48-0.3 1.55-0.42 2.09c-0.11 0.54-0.32 1.42-0.45 1.96s-0.34 1.29-0.46 1.66c-0.11 0.38-0.27 0.87-0.35 1.09-0.07 0.22-0.35 0.91-0.6 1.54s-0.58 1.43-0.73 1.77c-0.15 0.35-0.39 0.88-0.53 1.19s-0.4 0.84-0.57 1.17c-0.16 0.33-0.46 0.88-0.65 1.21s-0.48 0.82-0.65 1.08c-0.16 0.26-0.45 0.68-0.63 0.94-0.18 0.25-0.48 0.64-0.65 0.85-0.17 0.22-0.47 0.58-0.66 0.8-0.2 0.22-0.7 0.73-1.12 1.15-0.42 0.41-0.98 0.93-1.24 1.16-0.27 0.23-0.89 0.74-1.4 1.15-0.5 0.4-1.15 0.9-1.44 1.12-0.3 0.22-0.59 0.46-0.67 0.58-0.08 0.11-0.19 0.27-0.24 0.36-0.04 0.1-0.11 0.27-0.16 0.4l-0.07 0.23-0.02 6.52c0 4.42-0.02 6.51-0.05 6.51-0.02 0-0.42 0.07-0.89 0.15-0.46 0.07-1.23 0.2-1.71 0.27s-1.32 0.18-1.88 0.25c-0.55 0.07-1.38 0.16-1.86 0.21-0.47 0.04-1.24 0.11-1.71 0.14-0.54 0.04-2.12 0.08-4.32 0.11-2.58 0.04-4.27 0.04-6.61 0-1.73-0.02-3.4-0.06-3.72-0.09-0.32-0.02-1.1-0.09-1.73-0.15-0.63-0.05-1.56-0.15-2.07-0.2-0.5-0.06-1.32-0.16-1.82-0.23s-1.22-0.17-1.59-0.23-0.75-0.12-0.85-0.13l-0.18-0.03v-6.09c0-5.33-0.01-6.13-0.06-6.34-0.04-0.14-0.13-0.37-0.22-0.53-0.1-0.19-0.24-0.38-0.43-0.55-0.2-0.2-0.39-0.33-0.65-0.45-0.21-0.1-0.65-0.31-0.99-0.48-0.35-0.16-0.84-0.42-1.1-0.57s-0.66-0.4-0.9-0.55c-0.23-0.16-0.63-0.44-0.88-0.62-0.25-0.19-0.66-0.51-0.9-0.72-0.24-0.2-0.64-0.56-0.9-0.79-0.25-0.24-0.69-0.68-0.96-0.99-0.28-0.3-0.66-0.73-0.85-0.95-0.18-0.23-0.54-0.68-0.79-1.02-0.25-0.33-0.67-0.93-0.93-1.32-0.26-0.4-0.63-0.98-0.81-1.28-0.19-0.31-0.53-0.9-0.76-1.32-0.24-0.41-0.67-1.24-0.96-1.83-0.29-0.6-0.7-1.46-0.91-1.92s-0.49-1.11-0.63-1.44c-0.15-0.33-0.45-1.06-0.68-1.61-0.22-0.56-0.51-1.31-0.64-1.69-0.12-0.37-0.36-1.13-0.52-1.68s-0.48-1.68-0.71-2.5c-0.23-0.83-0.52-1.93-0.66-2.44-0.14-0.52-0.38-1.45-0.54-2.07s-0.55-2.12-0.86-3.33c-0.32-1.22-0.75-2.91-0.97-3.76s-0.42-1.66-0.45-1.81c-0.04-0.15-0.06-0.4-0.06-0.56 0-0.15 0.03-0.42 0.06-0.6 0.04-0.18 0.14-0.47 0.23-0.66 0.08-0.18 0.24-0.45 0.35-0.59s0.33-0.37 0.49-0.49c0.16-0.13 0.43-0.29 0.59-0.37 0.17-0.08 0.42-0.17 0.57-0.22 0.19-0.05 0.41-0.07 0.73-0.07 0.3 0 0.55 0.02 0.73 0.07 0.15 0.04 0.45 0.16 0.67 0.26 0.33 0.17 0.45 0.26 0.77 0.58 0.26 0.26 0.42 0.46 0.53 0.67 0.08 0.16 1.33 2.97 2.77 6.25 1.45 3.28 2.76 6.25 2.91 6.59 0.15 0.35 0.35 0.76 0.43 0.91 0.08 0.16 0.26 0.39 0.39 0.53 0.13 0.13 0.35 0.3 0.49 0.37 0.13 0.07 0.33 0.16 0.43 0.2 0.15 0.06 0.43 0.08 1.64 0.1 1.18 0.03 1.57 0.05 2.04 0.12 0.32 0.05 0.85 0.15 1.17 0.21 0.33 0.07 0.85 0.2 1.17 0.29s0.79 0.24 1.04 0.33 0.65 0.25 0.89 0.36 0.68 0.32 0.98 0.47 0.91 0.48 1.36 0.73c0.44 0.25 0.92 0.51 1.06 0.57 0.2 0.08 0.35 0.11 0.67 0.12 0.3 0.01 0.49 0 0.69-0.05 0.15-0.04 0.34-0.11 0.44-0.16 0.09-0.05 0.25-0.15 0.36-0.24s0.27-0.24 0.35-0.34 0.21-0.29 0.28-0.42c0.06-0.14 0.15-0.38 0.18-0.53s0.06-0.38 0.06-0.5c0-0.13-0.03-0.35-0.07-0.5-0.03-0.15-0.13-0.39-0.21-0.55-0.09-0.17-0.24-0.37-0.4-0.53-0.15-0.13-0.54-0.42-0.91-0.64-0.35-0.22-0.91-0.54-1.23-0.71-0.32-0.18-0.83-0.43-1.13-0.57s-0.8-0.36-1.12-0.49-0.97-0.36-1.44-0.52c-0.47-0.15-1.2-0.37-1.62-0.47-0.43-0.11-0.86-0.2-0.97-0.22l-0.19-0.03-0.02-2.98c-0.02-1.65-0.03-9.58-0.03-17.64l-0.01-14.64 0.07-0.26c0.04-0.14 0.12-0.36 0.19-0.49 0.06-0.13 0.2-0.35 0.3-0.49s0.27-0.32 0.37-0.4c0.1-0.09 0.3-0.22 0.43-0.3 0.14-0.08 0.38-0.19 0.53-0.23 0.14-0.05 0.46-0.11 0.69-0.15 0.24-0.03 0.58-0.06 0.77-0.06s0.47 0.03 0.62 0.06c0.15 0.04 0.4 0.13 0.56 0.21s0.39 0.23 0.51 0.32c0.12 0.1 0.3 0.28 0.4 0.41s0.25 0.36 0.34 0.52c0.08 0.16 0.17 0.42 0.21 0.58 0.05 0.24 0.12 2.5 0.4 12.19 0.27 9.48 0.35 11.95 0.4 12.14 0.03 0.12 0.12 0.34 0.19 0.48 0.08 0.14 0.26 0.38 0.41 0.53 0.19 0.19 0.38 0.33 0.59 0.43 0.17 0.09 0.45 0.18 0.62 0.22 0.27 0.05 0.52 0.05 2.02 0.02 0.94-0.03 1.84-0.06 2.01-0.07 0.16-0.01 0.4-0.05 0.52-0.09 0.12-0.03 0.34-0.12 0.47-0.19 0.14-0.07 0.37-0.25 0.5-0.39 0.15-0.14 0.31-0.36 0.39-0.52 0.08-0.15 0.16-0.41 0.2-0.6 0.03-0.19 0.47-6.61 0.98-14.49 0.51-7.79 0.94-14.46 0.96-14.82 0.02-0.49 0.06-0.75 0.12-0.96 0.05-0.16 0.15-0.41 0.22-0.55 0.08-0.15 0.28-0.39 0.49-0.61 0.29-0.29 0.42-0.39 0.71-0.53 0.2-0.09 0.48-0.2 0.62-0.23 0.19-0.05 0.45-0.06 0.84-0.05zm108.58 2.1c-6.09 0-10.85 1.34-14.2 4-3.32 2.64-5.05 6.07-5.05 10.1 0 3.31 0.89 6.04 2.73 7.98 1.75 1.95 3.84 3.34 6.38 4.12 2.4 0.87 5.52 1.62 9.47 2.28 3.25 0.65 5.86 1.21 7.67 1.75 1.76 0.53 3.16 1.4 4.41 2.47 1.16 1.09 1.73 2.43 1.73 4.34 0 2.7-1.07 4.66-3.24 6.14l-0.01 0.01-0.01 0.01c-2.13 1.53-5.64 2.29-10.44 2.29-3.38 0-6.57-0.54-9.68-1.64-3.12-1.1-5.57-2.46-7.45-4.08l-0.65-0.56-2.87 4.98 0.41 0.39c2.07 1.97 4.98 3.51 8.61 4.65 3.63 1.24 7.45 1.81 11.44 1.81 6.18 0 11.11-1.23 14.65-3.78 3.52-2.54 5.35-6 5.35-10.32 0-3.13-0.89-5.75-2.61-7.68l-0.02-0.01-0.01-0.02c-1.75-1.75-3.82-3.13-6.28-3.92-2.38-0.76-5.49-1.51-9.25-2.26v-0.01h-0.01c-3.44-0.65-6.14-1.3-7.98-1.85-1.76-0.53-3.25-1.41-4.49-2.55-1.15-1.08-1.73-2.52-1.73-4.63 0-2.51 0.98-4.49 3.16-6.06l0.01-0.01c2.06-1.54 5.37-2.39 9.87-2.39 2.55 0 5.1 0.37 7.67 1.1 2.44 0.73 4.62 1.81 6.62 3.18l0.64 0.43 2.86-4.97-0.53-0.38c-2.05-1.46-4.65-2.61-7.69-3.56l-0.01-0.01h-0.01c-3.14-0.86-6.3-1.34-9.46-1.34zm50.13 0c-4.71 0-8.95 1.16-12.62 3.28l-0.01 0.01c-3.75 2.21-6.66 5.22-8.78 9.07-2.13 3.86-3.08 8.3-3.08 13.16 0 4.97 1.06 9.32 3.27 13.18 2.22 3.85 5.31 6.95 9.27 9.07v0.01c3.95 2.21 8.39 3.26 13.45 3.26 3.82 0 7.38-0.67 10.74-2.01l0.01-0.01h0.01c3.18-1.35 6-3.39 8.23-6.2l0.38-0.47-3.67-4.18-0.54 0.67c-1.8 2.25-3.94 3.85-6.55 4.93-2.62 1.08-5.52 1.63-8.52 1.63-4.93 0-8.97-1.26-12.4-3.79-3.23-2.38-5.44-5.56-6.6-9.55l41.09-8.01-0.04-0.63c-0.28-4.39-1.34-8.35-3.46-11.93-2.12-3.56-4.93-6.37-8.4-8.39-3.48-2.03-7.45-3.1-11.78-3.1zm56.87 0c-4.88 0-9.22 1.16-13.07 3.28-3.86 2.12-6.95 5.21-9.08 9.07v0.01c-2.22 3.86-3.27 8.29-3.27 13.16 0 4.88 1.05 9.31 3.27 13.17v0.01c2.12 3.85 5.22 6.95 9.08 9.07 3.86 2.22 8.2 3.27 13.07 3.27 4.03 0 7.69-0.76 10.98-2.31s6.02-3.89 8.15-6.98l0.39-0.58-4.6-3.35-0.42 0.57c-1.72 2.36-3.78 4.14-6.28 5.3-2.52 1.17-5.21 1.71-8.22 1.71-3.73 0-7.06-0.82-9.94-2.43-2.88-1.63-5.21-3.95-6.83-7.02h-0.01c-1.62-2.98-2.44-6.4-2.44-10.43 0-3.92 0.82-7.35 2.45-10.43 1.62-2.96 3.95-5.29 6.83-6.91 2.89-1.63 6.22-2.53 9.94-2.53 2.99 0 5.69 0.63 8.22 1.8 2.52 1.17 4.56 2.86 6.28 5.21l0.42 0.57 4.61-3.36-0.41-0.58c-2.12-2.99-4.85-5.33-8.14-6.88-3.28-1.54-6.94-2.41-10.98-2.41zm80.26 0c-4.61 0-8.58 1.07-11.88 3.01-2.58 1.52-4.54 3.71-6.13 6.21v-8.84h-5.92v50.29h6.11v-26.74c0-5.67 1.53-10.04 4.58-13.36 3.04-3.22 7.21-4.92 12.58-4.92 4.62 0 8.14 1.42 10.71 4.08 2.47 2.74 3.83 6.75 3.83 12.05v28.89h6.11v-26.74c0-5.67 1.54-10.04 4.58-13.36 3.05-3.22 7.22-4.92 12.59-4.92 4.61 0 8.13 1.42 10.7 4.08 2.48 2.74 3.84 6.75 3.84 12.05v28.89h6.11v-29.26c0-6.78-1.83-12.14-5.45-15.85-3.61-3.71-8.6-5.56-14.73-5.56-4.8 0-8.97 1.16-12.54 3.29h-0.01v0.01c-3.18 1.97-5.49 4.67-7.15 7.81-1.4-3.35-3.45-6.09-6.3-7.99h-0.01l-0.01-0.01c-3.21-2.04-7.1-3.11-11.61-3.11zm-48.43 0.38v0.71 49.58h6.11v-50.29h-6.11zm-88.7 5.17c3.07 0 5.94 0.73 8.46 2.07 2.51 1.35 4.48 3.22 6.11 5.49 1.4 2.15 2.3 4.55 2.8 7.09l-35.71 6.99c-0.07-0.74-0.13-1.49-0.13-2.04 0-3.75 0.72-7.18 2.34-10.14v-0.01l0.01-0.01c1.53-2.98 3.68-5.29 6.55-6.91h0.01c2.79-1.63 5.93-2.53 9.56-2.53zm212.99 36.11c-1.29 0-2.44 0.45-3.32 1.33-0.87 0.87-1.33 2.03-1.33 3.31 0 1.29 0.44 2.52 1.33 3.41 0.88 0.88 2.03 1.33 3.32 1.33 1.2 0 2.34-0.45 3.22-1.33 0.87-0.87 1.42-2.08 1.42-3.41 0-1.32-0.57-2.46-1.42-3.31-0.88-0.88-2.02-1.33-3.22-1.33zm-31.28 18.75v0.72 70.17h6.11v-70.89h-6.11zm24.5 0v0.72 70.17h6.11v-70.89h-6.11zm108.9 1.13c-1.28 0-2.37 0.48-3.22 1.33-0.87 0.88-1.33 2.02-1.33 3.22 0 1.28 0.48 2.37 1.33 3.22 0.88 0.88 1.98 1.24 3.22 1.24 1.2 0 2.35-0.46 3.22-1.33 0.86-0.86 1.33-1.94 1.33-3.22 0-1.21-0.47-2.28-1.33-3.13-0.87-0.88-2.02-1.33-3.22-1.33zm-361.21 19.09c-4.7 0-8.94 1.06-12.78 3.08h-0.01v0.01c-3.85 2.11-6.86 5.02-8.98 8.69-2.22 3.76-3.28 8.02-3.28 12.62 0 4.69 1.06 8.94 3.28 12.62 2.12 3.76 5.13 6.67 8.98 8.78 3.85 2.13 8.1 3.09 12.79 3.09 4.5 0 8.65-0.96 12.32-2.99 3.02-1.59 5.33-3.98 7.27-6.75v6.12c0 6.43-1.55 10.99-4.46 13.91-3.01 2.91-7.57 4.38-13.92 4.38-3.86 0-7.42-0.55-10.69-1.83h-0.01l-0.01-0.01c-3.38-1.18-6.19-2.91-8.55-5.09l-0.6-0.55-3.34 4.71 0.42 0.43c2.52 2.51 5.8 4.54 9.91 5.88 4.02 1.43 8.41 2.1 12.97 2.1 7.97 0 14.17-1.9 18.28-6.01 4.11-4.02 6.12-10.23 6.12-18.48v-44.33h-0.72-5.21v9.62c-1.92-2.78-4.26-5.17-7.26-6.91l-0.01-0.01c-3.76-2.02-7.91-3.08-12.51-3.08zm63.89 0c-4.79 0-9.04 1.16-12.88 3.27l-0.01 0.01h-0.01c-3.85 2.22-6.85 5.31-8.97 9.16v0.01c-2.22 3.86-3.27 8.29-3.27 13.07 0 4.87 1.05 9.31 3.27 13.17 2.12 3.85 5.12 6.95 8.98 9.08h0.01c3.85 2.21 8.1 3.27 12.88 3.27 4.69 0 8.95-1.06 12.8-3.27 3.86-2.13 6.86-5.23 9.07-9.07l0.01-0.01c2.12-3.85 3.27-8.28 3.27-13.17 0-4.79-1.15-9.22-3.27-13.07l-0.01-0.01c-2.21-3.85-5.21-6.94-9.06-9.16h-0.01v-0.01c-3.84-2.11-8.09-3.27-12.8-3.27zm62.73 0c-4.69 0-8.76 1.06-12.24 2.99v0.01h-0.01c-2.75 1.61-4.77 3.84-6.41 6.37v-8.99h-5.92v50.29h6.1v-26.74c0-5.67 1.54-10.04 4.76-13.35 3.14-3.23 7.41-4.94 13.06-4.94 4.82 0 8.43 1.43 11.1 4.1 2.65 2.73 4.01 6.73 4.01 12.04v28.89h6.11v-29.27c0-6.77-1.83-12.14-5.55-15.85-3.7-3.71-8.79-5.55-15.01-5.55zm275.84 0c-4.79 0-9.04 1.16-12.89 3.27v0.01h-0.01c-3.85 2.21-6.85 5.31-8.96 9.16h-0.01c-2.22 3.86-3.27 8.3-3.27 13.08 0 4.88 1.05 9.32 3.27 13.18h0.01c2.11 3.85 5.11 6.94 8.97 9.07 3.86 2.21 8.11 3.27 12.89 3.27 4.69 0 8.94-1.06 12.8-3.27 3.86-2.13 6.86-5.23 9.07-9.07l0.01-0.01c2.11-3.85 3.27-8.28 3.27-13.17 0-4.79-1.16-9.22-3.27-13.07l-0.01-0.01c-2.21-3.85-5.21-6.94-9.06-9.16h-0.01v-0.01c-3.85-2.11-8.09-3.27-12.8-3.27zm-237.91 0.38v29.26c0 6.87 1.83 12.15 5.64 15.86 3.71 3.71 8.98 5.54 15.47 5.54 4.41 0 8.29-0.96 11.6-2.91 2.6-1.52 4.52-3.74 6.13-6.29v8.83h5.92v-50.29h-0.71-5.4v26.73c0 5.67-1.63 10.14-4.67 13.36v0.01h-0.01c-3.04 3.31-7.2 4.92-12.48 4.92-5.02 0-8.72-1.34-11.38-4.09v-0.01c-2.64-2.64-4.01-6.63-4.01-12.03v-28.89h-6.1zm111.69 0v29.26c0 6.86 1.84 12.14 5.64 15.86h0.01c3.71 3.71 8.98 5.54 15.47 5.54 4.41 0 8.29-0.96 11.6-2.91 2.59-1.52 4.52-3.74 6.13-6.29v8.83h5.92v-50.29h-0.71-5.4v26.73c0 5.67-1.63 10.14-4.67 13.36l-0.01 0.01c-3.04 3.31-7.2 4.92-12.48 4.92-5.02 0-8.72-1.34-11.38-4.09v-0.01c-2.64-2.64-4.01-6.63-4.01-12.03v-28.89h-6.11zm81.92 0v0.71 49.58h6.11v-50.29h-6.11zm-357.79 5.26c3.64 0 6.97 0.82 9.95 2.44 2.9 1.63 5.22 3.78 6.84 6.56 1.63 2.89 2.53 6.13 2.53 9.76 0 3.72-0.9 6.96-2.53 9.85-1.62 2.87-3.94 5.02-6.84 6.65-2.97 1.62-6.3 2.35-9.95 2.35-3.74 0-7.07-0.73-9.94-2.35-2.9-1.63-5.23-3.78-6.84-6.65-1.63-2.88-2.44-6.12-2.44-9.85 0-3.64 0.81-6.87 2.43-9.75 1.62-2.78 3.95-4.94 6.85-6.57 2.88-1.62 6.21-2.44 9.94-2.44zm63.52 0c3.62 0 6.76 0.9 9.66 2.53 2.88 1.71 5.12 4.04 6.75 7.02 1.63 3.08 2.53 6.52 2.53 10.33 0 3.92-0.9 7.35-2.53 10.33v0.01c-1.63 3.07-3.86 5.39-6.74 7.01h-0.01l-0.01 0.01c-2.88 1.71-6.01 2.52-9.65 2.52-3.63 0-6.86-0.81-9.74-2.52l-0.01-0.01h-0.01c-2.87-1.62-5.11-3.94-6.73-7.01l-0.01-0.01c-1.62-2.97-2.44-6.4-2.44-10.33 0-3.82 0.82-7.25 2.44-10.33 1.63-2.98 3.87-5.31 6.76-7.02 2.89-1.62 6.12-2.53 9.74-2.53zm338.57 0c3.62 0 6.76 0.9 9.66 2.53 2.88 1.71 5.12 4.04 6.75 7.02 1.63 3.08 2.53 6.52 2.53 10.33 0 3.92-0.9 7.35-2.53 10.33v0.01c-1.63 3.07-3.87 5.39-6.74 7.01h-0.01l-0.01 0.01c-2.88 1.71-6.01 2.52-9.65 2.52-3.63 0-6.86-0.81-9.74-2.52l-0.01-0.01h-0.01c-2.87-1.62-5.11-3.94-6.73-7.01l-0.01-0.01c-1.62-2.97-2.44-6.4-2.44-10.33 0-3.82 0.82-7.25 2.44-10.33 1.63-2.98 3.87-5.31 6.75-7.02 2.9-1.62 6.13-2.53 9.75-2.53zm-62.8 36.01c-1.28 0-2.44 0.46-3.31 1.34-0.88 0.87-1.33 2.03-1.33 3.31s0.43 2.51 1.33 3.41c0.87 0.87 2.03 1.33 3.31 1.33 1.21 0 2.35-0.46 3.22-1.33 0.88-0.88 1.43-2.09 1.43-3.41s-0.57-2.46-1.43-3.31c-0.87-0.88-2.01-1.34-3.22-1.34z" />
</g>
</svg>